<svg xmlns="http://www.w3.org/2000/svg" xmlns:xlink="http://www.w3.org/1999/xlink" width="100" zoomAndPan="magnify" viewBox="0 0 75 30.000001" height="40" preserveAspectRatio="xMidYMid meet" version="1.0"><defs><g/><clipPath id="d9a02ee7d7"><path d="M 5 2.71875 L 15 2.71875 L 15 19 L 5 19 Z M 5 2.71875 " clip-rule="nonzero"/></clipPath><clipPath id="da61ac46a1"><path d="M 17 8 L 19.351562 8 L 19.351562 14 L 17 14 Z M 17 8 " clip-rule="nonzero"/></clipPath></defs><path fill="#d8b445" d="M 15.125 9.917969 C 16.082031 10.542969 16.867188 9.808594 16.867188 9.808594 C 16.722656 10.488281 17.550781 10.554688 17.550781 10.554688 C 15.929688 10.867188 15.125 9.917969 15.125 9.917969 " fill-opacity="1" fill-rule="nonzero"/><path fill="#d8b445" d="M 15.011719 3.191406 C 15.011719 3.191406 17.148438 5.09375 13.355469 8.925781 C 9.5625 12.761719 8.117188 15.523438 11.644531 18.609375 C 15.171875 21.691406 12.957031 25.226562 10.148438 24.507812 C 10.148438 24.507812 12.6875 24.5625 12.621094 22.542969 C 12.542969 20.09375 5.769531 18.660156 7.746094 14.195312 C 9.722656 9.730469 16.292969 6.539062 15.011719 3.191406 " fill-opacity="1" fill-rule="nonzero"/><g clip-path="url(#d9a02ee7d7)"><path fill="#d8b445" d="M 12.300781 2.71875 C 12.300781 2.71875 17.328125 3.414062 10.757812 8.5625 C 4.1875 13.714844 6 16.386719 7.382812 18.519531 C 7.382812 18.519531 3.09375 15.644531 6.925781 10.988281 C 10.757812 6.335938 15.835938 4.652344 12.300781 2.71875 " fill-opacity="1" fill-rule="nonzero"/></g><path fill="#d8b445" d="M 14.175781 9.394531 C 14.175781 9.394531 9.59375 14.566406 14.898438 15.671875 C 14.898438 15.671875 11.007812 14.421875 14.175781 9.394531 " fill-opacity="1" fill-rule="nonzero"/><path fill="#d8b445" d="M 16.066406 14.351562 C 16.066406 14.351562 16.464844 14.46875 17.054688 14.042969 C 17.648438 13.609375 18.195312 13.992188 17.417969 14.535156 C 17.417969 14.535156 17.660156 14.730469 17.59375 14.988281 C 17.523438 15.246094 17.171875 15.363281 16.59375 14.871094 L 16.066406 14.351562 " fill-opacity="1" fill-rule="nonzero"/><g clip-path="url(#da61ac46a1)"><path fill="#d8b445" d="M 17.570312 13.371094 C 17.585938 13.339844 17.613281 13.308594 17.648438 13.277344 C 17.714844 13.21875 17.8125 13.171875 17.925781 13.125 C 18.039062 13.078125 18.167969 13.039062 18.308594 12.992188 C 18.449219 12.949219 18.597656 12.90625 18.746094 12.847656 C 18.820312 12.816406 18.890625 12.78125 18.953125 12.742188 C 18.980469 12.722656 19.007812 12.699219 19.027344 12.679688 C 19.046875 12.65625 19.058594 12.632812 19.0625 12.613281 C 19.066406 12.59375 19.066406 12.574219 19.058594 12.546875 C 19.054688 12.535156 19.050781 12.519531 19.046875 12.507812 L 19.039062 12.496094 L 19.035156 12.480469 L 19.03125 12.480469 C 19.035156 12.484375 19.03125 12.480469 19.03125 12.480469 L 19.03125 12.476562 L 19.027344 12.472656 C 19.027344 12.46875 19.023438 12.464844 19.023438 12.460938 C 19.003906 12.429688 18.980469 12.394531 18.953125 12.359375 C 18.925781 12.324219 18.898438 12.289062 18.867188 12.253906 C 18.808594 12.183594 18.746094 12.109375 18.683594 12.03125 C 18.625 11.957031 18.5625 11.878906 18.503906 11.796875 C 18.382812 11.640625 18.273438 11.46875 18.179688 11.296875 C 18.132812 11.210938 18.085938 11.121094 18.046875 11.035156 C 18.007812 10.945312 17.972656 10.855469 17.9375 10.765625 C 17.90625 10.675781 17.878906 10.589844 17.855469 10.5 C 17.832031 10.414062 17.816406 10.324219 17.800781 10.242188 C 17.769531 10.070312 17.753906 9.90625 17.753906 9.757812 C 17.75 9.722656 17.753906 9.683594 17.753906 9.648438 C 17.753906 9.613281 17.753906 9.578125 17.757812 9.542969 C 17.757812 9.511719 17.761719 9.476562 17.761719 9.445312 C 17.765625 9.414062 17.769531 9.382812 17.773438 9.351562 C 17.785156 9.234375 17.804688 9.128906 17.820312 9.046875 C 17.832031 9.003906 17.839844 8.964844 17.847656 8.933594 C 17.855469 8.902344 17.863281 8.875 17.871094 8.851562 C 17.875 8.828125 17.882812 8.8125 17.886719 8.800781 C 17.890625 8.789062 17.890625 8.785156 17.890625 8.785156 C 17.890625 8.785156 17.890625 8.789062 17.890625 8.800781 C 17.890625 8.816406 17.890625 8.832031 17.890625 8.855469 C 17.890625 8.878906 17.890625 8.90625 17.890625 8.9375 C 17.890625 8.972656 17.890625 9.011719 17.890625 9.050781 C 17.894531 9.136719 17.898438 9.238281 17.90625 9.355469 C 17.910156 9.382812 17.910156 9.414062 17.914062 9.445312 C 17.917969 9.476562 17.921875 9.507812 17.925781 9.539062 C 17.933594 9.601562 17.941406 9.671875 17.953125 9.742188 C 17.957031 9.773438 17.964844 9.8125 17.972656 9.847656 C 17.980469 9.882812 17.988281 9.917969 17.996094 9.957031 C 18.011719 10.03125 18.03125 10.105469 18.054688 10.183594 C 18.074219 10.261719 18.101562 10.339844 18.128906 10.417969 C 18.15625 10.496094 18.1875 10.578125 18.222656 10.65625 C 18.257812 10.738281 18.292969 10.816406 18.335938 10.898438 C 18.375 10.976562 18.417969 11.058594 18.464844 11.136719 C 18.558594 11.296875 18.660156 11.449219 18.773438 11.605469 C 18.800781 11.640625 18.828125 11.679688 18.855469 11.71875 C 18.882812 11.757812 18.914062 11.792969 18.941406 11.832031 C 19 11.910156 19.058594 11.984375 19.117188 12.0625 C 19.144531 12.101562 19.175781 12.144531 19.203125 12.183594 C 19.230469 12.226562 19.257812 12.269531 19.285156 12.324219 C 19.289062 12.328125 19.289062 12.335938 19.292969 12.34375 L 19.304688 12.363281 L 19.308594 12.382812 L 19.320312 12.40625 C 19.328125 12.433594 19.335938 12.464844 19.34375 12.496094 C 19.351562 12.558594 19.351562 12.632812 19.328125 12.699219 C 19.304688 12.765625 19.261719 12.824219 19.21875 12.863281 C 19.175781 12.90625 19.128906 12.9375 19.085938 12.960938 C 18.992188 13.011719 18.90625 13.039062 18.820312 13.066406 C 18.652344 13.113281 18.492188 13.140625 18.347656 13.164062 C 18.207031 13.1875 18.074219 13.210938 17.960938 13.234375 C 17.847656 13.261719 17.75 13.289062 17.683594 13.328125 C 17.648438 13.347656 17.617188 13.367188 17.597656 13.390625 C 17.578125 13.414062 17.566406 13.4375 17.5625 13.460938 C 17.558594 13.480469 17.554688 13.5 17.554688 13.511719 C 17.554688 13.523438 17.558594 13.527344 17.558594 13.527344 C 17.558594 13.527344 17.554688 13.523438 17.550781 13.511719 C 17.546875 13.5 17.542969 13.480469 17.546875 13.457031 C 17.546875 13.433594 17.550781 13.402344 17.570312 13.371094 " fill-opacity="1" fill-rule="nonzero"/></g><g fill="#d8b445" fill-opacity="1"><g transform="translate(14.997788, 22.055072)"><g><path d="M 10.484375 -6.375 C 9.078125 -7.070312 7.941406 -7.421875 7.078125 -7.421875 C 6.222656 -7.421875 5.507812 -7.175781 4.9375 -6.6875 C 4.382812 -6.21875 4.109375 -5.71875 4.109375 -5.1875 C 4.109375 -4.90625 4.207031 -4.703125 4.40625 -4.578125 C 4.675781 -4.421875 4.9375 -4.34375 5.1875 -4.34375 C 5.28125 -4.34375 5.367188 -4.351562 5.453125 -4.375 C 5.773438 -4.457031 6.046875 -4.585938 6.265625 -4.765625 C 6.492188 -4.941406 6.609375 -5.085938 6.609375 -5.203125 C 6.609375 -5.316406 6.640625 -5.394531 6.703125 -5.4375 C 6.773438 -5.476562 6.8125 -5.460938 6.8125 -5.390625 C 6.8125 -5.347656 6.800781 -5.300781 6.78125 -5.25 C 6.625 -4.75 6.28125 -4.410156 5.75 -4.234375 C 5.519531 -4.160156 5.28125 -4.125 5.03125 -4.125 C 4.789062 -4.125 4.550781 -4.195312 4.3125 -4.34375 C 3.863281 -4.59375 3.640625 -4.972656 3.640625 -5.484375 C 3.640625 -6.109375 3.925781 -6.671875 4.5 -7.171875 C 5.070312 -7.679688 5.769531 -7.9375 6.59375 -7.9375 C 7 -7.9375 7.40625 -7.878906 7.8125 -7.765625 C 8.84375 -7.484375 9.78125 -7.078125 10.625 -6.546875 C 10.832031 -6.785156 11.054688 -6.90625 11.296875 -6.90625 C 11.546875 -6.90625 11.675781 -6.816406 11.6875 -6.640625 C 11.695312 -6.566406 11.671875 -6.535156 11.609375 -6.546875 C 11.578125 -6.546875 11.539062 -6.570312 11.5 -6.625 C 11.445312 -6.644531 11.394531 -6.65625 11.34375 -6.65625 C 11.1875 -6.65625 11.03125 -6.578125 10.875 -6.421875 C 11.382812 -6.171875 11.988281 -5.953125 12.6875 -5.765625 C 12.957031 -5.703125 13.171875 -5.671875 13.328125 -5.671875 C 13.492188 -5.671875 13.617188 -5.675781 13.703125 -5.6875 C 14.015625 -5.71875 14.210938 -5.832031 14.296875 -6.03125 C 14.347656 -6.132812 14.390625 -6.195312 14.421875 -6.21875 C 14.460938 -6.25 14.488281 -6.238281 14.5 -6.1875 C 14.5 -6.164062 14.5 -6.140625 14.5 -6.109375 C 14.5 -5.816406 14.351562 -5.597656 14.0625 -5.453125 C 13.875 -5.367188 13.703125 -5.328125 13.546875 -5.328125 C 13.390625 -5.328125 13.21875 -5.34375 13.03125 -5.375 C 12.84375 -5.40625 12.597656 -5.46875 12.296875 -5.5625 C 11.992188 -5.65625 11.75 -5.742188 11.5625 -5.828125 C 11.375 -5.910156 11.1875 -6 11 -6.09375 L 10.71875 -6.234375 C 10.351562 -5.828125 9.960938 -5.125 9.546875 -4.125 C 9.421875 -3.78125 9.347656 -3.585938 9.328125 -3.546875 C 9.734375 -3.484375 10.101562 -3.453125 10.4375 -3.453125 C 10.78125 -3.453125 11.050781 -3.457031 11.25 -3.46875 C 11.445312 -3.476562 11.550781 -3.457031 11.5625 -3.40625 C 11.570312 -3.25 11.050781 -3.171875 10 -3.171875 C 9.664062 -3.171875 9.398438 -3.1875 9.203125 -3.21875 C 8.765625 -2.03125 8.332031 -1.148438 7.90625 -0.578125 C 7.71875 -0.347656 7.488281 -0.101562 7.21875 0.15625 C 6.945312 0.414062 6.660156 0.628906 6.359375 0.796875 C 5.671875 1.171875 4.898438 1.359375 4.046875 1.359375 C 3.191406 1.359375 2.46875 1.171875 1.875 0.796875 C 0.976562 0.234375 0.53125 -0.570312 0.53125 -1.625 C 0.53125 -1.976562 0.585938 -2.359375 0.703125 -2.765625 C 0.796875 -3.023438 0.953125 -3.253906 1.171875 -3.453125 C 1.398438 -3.660156 1.585938 -3.785156 1.734375 -3.828125 C 1.890625 -3.878906 1.960938 -3.890625 1.953125 -3.859375 C 1.941406 -3.828125 1.820312 -3.734375 1.59375 -3.578125 C 1.144531 -3.242188 0.878906 -2.835938 0.796875 -2.359375 C 0.753906 -2.179688 0.734375 -1.976562 0.734375 -1.75 C 0.734375 -1.519531 0.789062 -1.269531 0.90625 -1 C 1.1875 -0.257812 1.773438 0.28125 2.671875 0.625 C 3.097656 0.789062 3.554688 0.875 4.046875 0.875 C 4.535156 0.875 5.019531 0.773438 5.5 0.578125 C 5.976562 0.378906 6.425781 0.0859375 6.84375 -0.296875 C 7.632812 -1.054688 8.296875 -2.039062 8.828125 -3.25 L 8.15625 -3.265625 C 7.34375 -3.265625 6.804688 -3.078125 6.546875 -2.703125 C 6.484375 -2.617188 6.429688 -2.597656 6.390625 -2.640625 C 6.347656 -2.679688 6.34375 -2.734375 6.375 -2.796875 C 6.53125 -3.128906 6.742188 -3.367188 7.015625 -3.515625 C 7.296875 -3.660156 7.570312 -3.734375 7.84375 -3.734375 C 8.125 -3.734375 8.5 -3.703125 8.96875 -3.640625 C 9.1875 -4.171875 9.457031 -4.71875 9.78125 -5.28125 C 10.113281 -5.851562 10.347656 -6.21875 10.484375 -6.375 Z M 10.484375 -6.375 "/></g></g></g><g fill="#d8b445" fill-opacity="1"><g transform="translate(26.508947, 22.055072)"><g><path d="M 3.78125 -2.828125 C 3.644531 -2.703125 3.460938 -2.414062 3.234375 -1.96875 C 3.003906 -1.53125 2.867188 -1.203125 2.828125 -0.984375 C 2.785156 -0.765625 2.765625 -0.585938 2.765625 -0.453125 C 2.765625 -0.316406 2.816406 -0.25 2.921875 -0.25 C 3.046875 -0.25 3.207031 -0.367188 3.40625 -0.609375 C 3.695312 -0.972656 3.976562 -1.4375 4.25 -2 C 4.28125 -2.0625 4.3125 -2.097656 4.34375 -2.109375 C 4.40625 -2.128906 4.4375 -2.109375 4.4375 -2.046875 C 4.4375 -2.015625 4.425781 -1.972656 4.40625 -1.921875 C 3.757812 -0.628906 3.21875 0.015625 2.78125 0.015625 C 2.582031 0.015625 2.421875 -0.078125 2.296875 -0.265625 C 2.222656 -0.367188 2.1875 -0.507812 2.1875 -0.6875 C 2.1875 -0.863281 2.222656 -1.078125 2.296875 -1.328125 C 1.742188 -0.429688 1.265625 0.015625 0.859375 0.015625 C 0.742188 0.015625 0.640625 -0.015625 0.546875 -0.078125 C 0.335938 -0.222656 0.234375 -0.476562 0.234375 -0.84375 C 0.234375 -1.519531 0.53125 -2.210938 1.125 -2.921875 C 1.457031 -3.304688 1.867188 -3.554688 2.359375 -3.671875 C 2.492188 -3.710938 2.617188 -3.734375 2.734375 -3.734375 C 3.054688 -3.734375 3.328125 -3.617188 3.546875 -3.390625 C 3.617188 -3.316406 3.640625 -3.242188 3.609375 -3.171875 C 3.585938 -3.109375 3.53125 -3.082031 3.4375 -3.09375 C 3.363281 -3.34375 3.195312 -3.46875 2.9375 -3.46875 C 2.632812 -3.46875 2.265625 -3.234375 1.828125 -2.765625 C 1.578125 -2.484375 1.34375 -2.15625 1.125 -1.78125 C 0.851562 -1.320312 0.71875 -0.957031 0.71875 -0.6875 C 0.71875 -0.414062 0.804688 -0.28125 0.984375 -0.28125 C 1.398438 -0.28125 1.945312 -0.921875 2.625 -2.203125 C 2.757812 -2.460938 2.867188 -2.640625 2.953125 -2.734375 C 3.046875 -2.828125 3.160156 -2.875 3.296875 -2.875 C 3.328125 -2.875 3.398438 -2.863281 3.515625 -2.84375 C 3.628906 -2.820312 3.71875 -2.816406 3.78125 -2.828125 Z M 3.78125 -2.828125 "/></g></g></g><g fill="#d8b445" fill-opacity="1"><g transform="translate(30.729422, 22.055072)"><g><path d="M 3.375 -3.640625 L 3.328125 -3.453125 C 2.972656 -2.347656 2.644531 -1.539062 2.34375 -1.03125 C 1.90625 -0.289062 1.445312 0.078125 0.96875 0.078125 C 0.570312 0.078125 0.375 -0.109375 0.375 -0.484375 C 0.375 -0.773438 0.476562 -1.21875 0.6875 -1.8125 C 0.613281 -1.707031 0.554688 -1.671875 0.515625 -1.703125 C 0.484375 -1.742188 0.476562 -1.789062 0.5 -1.84375 L 0.6875 -2.203125 C 0.820312 -2.472656 0.890625 -2.742188 0.890625 -3.015625 C 0.890625 -3.285156 0.832031 -3.445312 0.71875 -3.5 C 1.132812 -3.570312 1.378906 -3.601562 1.453125 -3.59375 C 1.523438 -3.59375 1.566406 -3.5625 1.578125 -3.5 C 1.597656 -3.445312 1.609375 -3.390625 1.609375 -3.328125 C 1.609375 -2.898438 1.5 -2.394531 1.28125 -1.8125 C 1.0625 -1.238281 0.953125 -0.851562 0.953125 -0.65625 C 0.953125 -0.457031 0.984375 -0.34375 1.046875 -0.3125 C 1.109375 -0.28125 1.171875 -0.265625 1.234375 -0.265625 C 1.410156 -0.265625 1.613281 -0.410156 1.84375 -0.703125 C 2.070312 -0.992188 2.304688 -1.425781 2.546875 -2 C 2.441406 -2.21875 2.390625 -2.410156 2.390625 -2.578125 C 2.390625 -2.753906 2.410156 -2.910156 2.453125 -3.046875 C 2.578125 -3.441406 2.773438 -3.6875 3.046875 -3.78125 C 3.109375 -3.800781 3.160156 -3.8125 3.203125 -3.8125 C 3.316406 -3.8125 3.375 -3.753906 3.375 -3.640625 Z M 3.375 -3.640625 "/></g></g></g><g fill="#d8b445" fill-opacity="1"><g transform="translate(34.030734, 22.055072)"><g><path d="M 2.5 -3.65625 C 3.007812 -3.65625 3.265625 -3.335938 3.265625 -2.703125 C 3.265625 -2.410156 3.1875 -2.09375 3.03125 -1.75 C 2.832031 -1.300781 2.539062 -0.890625 2.15625 -0.515625 C 2.25 -0.347656 2.410156 -0.265625 2.640625 -0.265625 C 2.828125 -0.265625 3.003906 -0.359375 3.171875 -0.546875 C 3.378906 -0.765625 3.53125 -0.953125 3.625 -1.109375 C 3.71875 -1.273438 3.785156 -1.394531 3.828125 -1.46875 C 3.867188 -1.550781 3.921875 -1.660156 3.984375 -1.796875 C 4.054688 -1.941406 4.097656 -2.03125 4.109375 -2.0625 C 4.117188 -2.09375 4.144531 -2.109375 4.1875 -2.109375 C 4.25 -2.117188 4.28125 -2.09375 4.28125 -2.03125 C 4.28125 -2.007812 4.273438 -1.988281 4.265625 -1.96875 L 4.203125 -1.8125 C 4.160156 -1.71875 4.128906 -1.648438 4.109375 -1.609375 C 4.085938 -1.566406 4.050781 -1.488281 4 -1.375 C 3.945312 -1.269531 3.898438 -1.1875 3.859375 -1.125 C 3.828125 -1.0625 3.773438 -0.976562 3.703125 -0.875 C 3.640625 -0.769531 3.582031 -0.6875 3.53125 -0.625 C 3.476562 -0.5625 3.410156 -0.488281 3.328125 -0.40625 C 3.253906 -0.332031 3.179688 -0.273438 3.109375 -0.234375 C 2.941406 -0.128906 2.78125 -0.078125 2.625 -0.078125 C 2.332031 -0.078125 2.109375 -0.171875 1.953125 -0.359375 C 1.628906 -0.117188 1.332031 0 1.0625 0 C 0.550781 0 0.296875 -0.320312 0.296875 -0.96875 C 0.296875 -1.257812 0.375 -1.570312 0.53125 -1.90625 C 0.738281 -2.394531 1.03125 -2.804688 1.40625 -3.140625 C 1.789062 -3.484375 2.15625 -3.65625 2.5 -3.65625 Z M 2.609375 -3.328125 C 2.421875 -3.328125 2.195312 -3.203125 1.9375 -2.953125 C 1.6875 -2.703125 1.457031 -2.363281 1.25 -1.9375 C 1.007812 -1.4375 0.890625 -1.023438 0.890625 -0.703125 C 0.890625 -0.378906 1.007812 -0.21875 1.25 -0.21875 C 1.425781 -0.21875 1.625 -0.3125 1.84375 -0.5 C 1.726562 -0.65625 1.671875 -0.828125 1.671875 -1.015625 C 1.679688 -1.316406 1.800781 -1.46875 2.03125 -1.46875 C 2.125 -1.46875 2.203125 -1.4375 2.265625 -1.375 C 2.328125 -1.3125 2.359375 -1.253906 2.359375 -1.203125 C 2.359375 -1.148438 2.347656 -1.09375 2.328125 -1.03125 C 2.453125 -1.207031 2.585938 -1.457031 2.734375 -1.78125 C 2.910156 -2.132812 3 -2.476562 3 -2.8125 C 3 -3.15625 2.867188 -3.328125 2.609375 -3.328125 Z M 2.609375 -3.328125 "/></g></g></g><g fill="#d8b445" fill-opacity="1"><g transform="translate(38.094533, 22.055072)"><g><path d="M 0.234375 -0.609375 C 0.234375 -0.910156 0.359375 -1.269531 0.609375 -1.6875 C 0.503906 -1.6875 0.472656 -1.742188 0.515625 -1.859375 L 0.703125 -2.21875 C 0.941406 -2.675781 1.140625 -3.0625 1.296875 -3.375 C 1.367188 -3.519531 1.503906 -3.59375 1.703125 -3.59375 L 2.34375 -3.59375 C 2.09375 -3.414062 1.835938 -3.066406 1.578125 -2.546875 C 1.328125 -2.023438 1.128906 -1.613281 0.984375 -1.3125 C 0.847656 -1.019531 0.78125 -0.796875 0.78125 -0.640625 C 0.78125 -0.492188 0.804688 -0.390625 0.859375 -0.328125 C 0.910156 -0.265625 0.984375 -0.234375 1.078125 -0.234375 C 1.210938 -0.234375 1.394531 -0.367188 1.625 -0.640625 C 2 -1.078125 2.519531 -1.988281 3.1875 -3.375 C 3.257812 -3.519531 3.394531 -3.59375 3.59375 -3.59375 L 4.15625 -3.59375 C 4.007812 -3.476562 3.890625 -3.359375 3.796875 -3.234375 C 3.710938 -3.109375 3.59375 -2.882812 3.4375 -2.5625 C 3.019531 -1.726562 2.785156 -1.175781 2.734375 -0.90625 C 2.710938 -0.800781 2.703125 -0.707031 2.703125 -0.625 C 2.703125 -0.40625 2.78125 -0.285156 2.9375 -0.265625 C 3.3125 -0.265625 3.773438 -0.847656 4.328125 -2.015625 C 4.367188 -2.109375 4.410156 -2.144531 4.453125 -2.125 C 4.492188 -2.101562 4.515625 -2.078125 4.515625 -2.046875 C 4.515625 -2.015625 4.484375 -1.9375 4.421875 -1.8125 C 4.359375 -1.6875 4.296875 -1.5625 4.234375 -1.4375 C 4.179688 -1.320312 4.09375 -1.160156 3.96875 -0.953125 C 3.84375 -0.742188 3.726562 -0.582031 3.625 -0.46875 C 3.351562 -0.164062 3.085938 -0.015625 2.828125 -0.015625 C 2.566406 -0.015625 2.390625 -0.128906 2.296875 -0.359375 C 2.242188 -0.460938 2.21875 -0.59375 2.21875 -0.75 C 2.21875 -0.914062 2.253906 -1.113281 2.328125 -1.34375 C 1.816406 -0.457031 1.347656 -0.015625 0.921875 -0.015625 C 0.546875 -0.015625 0.328125 -0.171875 0.265625 -0.484375 C 0.242188 -0.515625 0.234375 -0.554688 0.234375 -0.609375 Z M 0.234375 -0.609375 "/></g></g></g><g fill="#d8b445" fill-opacity="1"><g transform="translate(42.388128, 22.055072)"><g><path d="M 2.015625 -4.1875 C 2.015625 -3.875 1.816406 -3.578125 1.421875 -3.296875 C 1.554688 -3.296875 1.738281 -3.296875 1.96875 -3.296875 C 2.207031 -3.296875 2.503906 -3.3125 2.859375 -3.34375 C 2.867188 -3.320312 2.875 -3.265625 2.875 -3.171875 C 2.875 -3.085938 2.832031 -2.957031 2.75 -2.78125 C 2.664062 -2.601562 2.59375 -2.445312 2.53125 -2.3125 C 2.46875 -2.1875 2.40625 -2.066406 2.34375 -1.953125 C 2.28125 -1.835938 2.210938 -1.695312 2.140625 -1.53125 C 2.066406 -1.363281 2.003906 -1.207031 1.953125 -1.0625 C 1.785156 -0.53125 1.816406 -0.265625 2.046875 -0.265625 C 2.335938 -0.265625 2.769531 -0.847656 3.34375 -2.015625 C 3.382812 -2.109375 3.421875 -2.144531 3.453125 -2.125 C 3.484375 -2.101562 3.5 -2.078125 3.5 -2.046875 C 3.5 -2.015625 3.453125 -1.90625 3.359375 -1.71875 C 3.273438 -1.53125 3.179688 -1.335938 3.078125 -1.140625 C 2.972656 -0.953125 2.8125 -0.726562 2.59375 -0.46875 C 2.320312 -0.144531 2.066406 0.015625 1.828125 0.015625 C 1.554688 0.015625 1.367188 -0.148438 1.265625 -0.484375 C 1.242188 -0.546875 1.234375 -0.640625 1.234375 -0.765625 C 1.234375 -0.890625 1.269531 -1.054688 1.34375 -1.265625 C 1.425781 -1.472656 1.550781 -1.726562 1.71875 -2.03125 C 1.894531 -2.332031 1.992188 -2.507812 2.015625 -2.5625 C 2.035156 -2.613281 2.046875 -2.660156 2.046875 -2.703125 C 2.046875 -2.921875 1.769531 -3.035156 1.21875 -3.046875 L 1.09375 -2.71875 C 0.65625 -1.570312 0.234375 -0.800781 -0.171875 -0.40625 C -0.242188 -0.34375 -0.28125 -0.363281 -0.28125 -0.46875 C -0.28125 -0.488281 -0.269531 -0.515625 -0.25 -0.546875 C 0.132812 -1.054688 0.46875 -1.660156 0.75 -2.359375 C 1.039062 -3.066406 1.242188 -3.738281 1.359375 -4.375 C 1.398438 -4.59375 1.492188 -4.703125 1.640625 -4.703125 C 1.796875 -4.703125 1.910156 -4.601562 1.984375 -4.40625 C 2.003906 -4.34375 2.015625 -4.269531 2.015625 -4.1875 Z M 2.015625 -4.1875 "/></g></g></g><g fill="#d8b445" fill-opacity="1"><g transform="translate(45.668548, 22.055072)"><g/></g></g><g fill="#d8b445" fill-opacity="1"><g transform="translate(48.938523, 22.055072)"><g><path d="M 3.734375 -2.84375 C 3.734375 -2.539062 3.648438 -2.203125 3.484375 -1.828125 C 3.328125 -1.460938 3.109375 -1.109375 2.828125 -0.765625 C 2.546875 -0.421875 2.203125 -0.1875 1.796875 -0.0625 C 1.640625 -0.0195312 1.460938 0 1.265625 0 C 1.066406 0 0.847656 -0.0625 0.609375 -0.1875 L -0.375 2.296875 C -0.476562 2.515625 -0.578125 2.65625 -0.671875 2.71875 C -0.765625 2.789062 -0.851562 2.828125 -0.9375 2.828125 C -1.019531 2.828125 -1.066406 2.828125 -1.078125 2.828125 C -1.097656 2.828125 -1.160156 2.816406 -1.265625 2.796875 C -1.378906 2.773438 -1.460938 2.769531 -1.515625 2.78125 C -1.359375 2.632812 -0.96875 1.9375 -0.34375 0.6875 C 0.269531 -0.550781 0.617188 -1.382812 0.703125 -1.8125 C 0.628906 -1.707031 0.554688 -1.648438 0.484375 -1.640625 C 0.441406 -1.640625 0.441406 -1.675781 0.484375 -1.75 C 0.523438 -1.832031 0.597656 -1.988281 0.703125 -2.21875 C 0.828125 -2.519531 0.890625 -2.796875 0.890625 -3.046875 C 0.890625 -3.304688 0.835938 -3.457031 0.734375 -3.5 C 1.160156 -3.570312 1.40625 -3.601562 1.46875 -3.59375 C 1.539062 -3.59375 1.582031 -3.5625 1.59375 -3.5 C 1.613281 -3.445312 1.625 -3.390625 1.625 -3.328125 C 1.625 -2.898438 1.53125 -2.425781 1.34375 -1.90625 L 1.546875 -2.234375 C 1.796875 -2.640625 1.976562 -2.898438 2.09375 -3.015625 C 2.207031 -3.140625 2.332031 -3.265625 2.46875 -3.390625 C 2.664062 -3.578125 2.859375 -3.671875 3.046875 -3.671875 C 3.109375 -3.671875 3.160156 -3.664062 3.203125 -3.65625 C 3.554688 -3.5625 3.734375 -3.289062 3.734375 -2.84375 Z M 3.234375 -2.953125 C 3.234375 -3.054688 3.207031 -3.15625 3.15625 -3.25 C 3.113281 -3.34375 3.046875 -3.390625 2.953125 -3.390625 C 2.703125 -3.390625 2.414062 -3.160156 2.09375 -2.703125 C 1.769531 -2.253906 1.304688 -1.46875 0.703125 -0.34375 C 0.796875 -0.25 0.921875 -0.203125 1.078125 -0.203125 C 1.234375 -0.203125 1.457031 -0.328125 1.75 -0.578125 C 2.21875 -0.960938 2.609375 -1.445312 2.921875 -2.03125 C 3.128906 -2.40625 3.234375 -2.710938 3.234375 -2.953125 Z M 3.234375 -2.953125 "/></g></g></g><g fill="#d8b445" fill-opacity="1"><g transform="translate(53.012768, 22.055072)"><g><path d="M 2.453125 -0.46875 C 2.453125 -0.269531 2.523438 -0.171875 2.671875 -0.171875 C 2.992188 -0.171875 3.457031 -0.785156 4.0625 -2.015625 C 4.101562 -2.109375 4.144531 -2.144531 4.1875 -2.125 C 4.226562 -2.101562 4.25 -2.078125 4.25 -2.046875 C 4.25 -2.015625 4.207031 -1.914062 4.125 -1.75 C 4.039062 -1.582031 3.957031 -1.425781 3.875 -1.28125 C 3.800781 -1.132812 3.6875 -0.9375 3.53125 -0.6875 C 3.207031 -0.195312 2.867188 0.046875 2.515625 0.046875 C 2.273438 0.046875 2.082031 -0.0507812 1.9375 -0.25 C 1.875 -0.34375 1.84375 -0.46875 1.84375 -0.625 C 1.84375 -0.78125 1.878906 -0.96875 1.953125 -1.1875 C 2.023438 -1.414062 2.21875 -1.78125 2.53125 -2.28125 C 2.601562 -2.40625 2.640625 -2.503906 2.640625 -2.578125 C 2.640625 -2.648438 2.582031 -2.6875 2.46875 -2.6875 C 2.351562 -2.6875 2.125 -2.53125 1.78125 -2.21875 C 1.28125 -1.757812 0.796875 -1.066406 0.328125 -0.140625 C 0.273438 -0.0351562 0.144531 0.015625 -0.0625 0.015625 C -0.25 0.0234375 -0.367188 0.046875 -0.421875 0.078125 C 0.898438 -2.679688 1.859375 -4.601562 2.453125 -5.6875 C 2.585938 -5.925781 2.703125 -6.09375 2.796875 -6.1875 C 2.898438 -6.289062 3.023438 -6.34375 3.171875 -6.34375 C 3.203125 -6.34375 3.269531 -6.332031 3.375 -6.3125 C 3.488281 -6.300781 3.578125 -6.296875 3.640625 -6.296875 C 3.429688 -6.085938 3.054688 -5.492188 2.515625 -4.515625 C 1.972656 -3.535156 1.457031 -2.539062 0.96875 -1.53125 C 1.289062 -1.9375 1.582031 -2.253906 1.84375 -2.484375 C 2.101562 -2.710938 2.421875 -2.929688 2.796875 -3.140625 C 3.171875 -3.347656 3.445312 -3.453125 3.625 -3.453125 C 3.664062 -3.453125 3.707031 -3.441406 3.75 -3.421875 C 2.882812 -1.921875 2.453125 -0.9375 2.453125 -0.46875 Z M 2.453125 -0.46875 "/></g></g></g><g fill="#d8b445" fill-opacity="1"><g transform="translate(57.045229, 22.055072)"><g><path d="M 2.015625 -4.0625 C 1.921875 -3.976562 1.816406 -3.9375 1.703125 -3.9375 C 1.585938 -3.9375 1.492188 -3.976562 1.421875 -4.0625 C 1.347656 -4.144531 1.320312 -4.25 1.34375 -4.375 C 1.363281 -4.488281 1.421875 -4.585938 1.515625 -4.671875 C 1.609375 -4.753906 1.710938 -4.796875 1.828125 -4.796875 C 1.953125 -4.796875 2.050781 -4.753906 2.125 -4.671875 C 2.195312 -4.585938 2.222656 -4.484375 2.203125 -4.359375 C 2.179688 -4.242188 2.117188 -4.144531 2.015625 -4.0625 Z M 1 -0.234375 C 1.132812 -0.234375 1.273438 -0.296875 1.421875 -0.421875 C 1.679688 -0.679688 2.007812 -1.207031 2.40625 -2 C 2.457031 -2.101562 2.503906 -2.132812 2.546875 -2.09375 C 2.566406 -2.082031 2.578125 -2.0625 2.578125 -2.03125 C 2.578125 -2 2.546875 -1.921875 2.484375 -1.796875 C 2.429688 -1.679688 2.378906 -1.570312 2.328125 -1.46875 C 2.285156 -1.375 2.195312 -1.21875 2.0625 -1 C 1.9375 -0.78125 1.820312 -0.609375 1.71875 -0.484375 C 1.4375 -0.160156 1.164062 0 0.90625 0 C 0.65625 0 0.472656 -0.0703125 0.359375 -0.21875 C 0.253906 -0.375 0.203125 -0.546875 0.203125 -0.734375 C 0.203125 -0.929688 0.242188 -1.140625 0.328125 -1.359375 L 1 -3.0625 C 1.019531 -3.101562 1.03125 -3.15625 1.03125 -3.21875 C 1.03125 -3.289062 0.988281 -3.382812 0.90625 -3.5 L 1.46875 -3.515625 C 1.632812 -3.515625 1.726562 -3.484375 1.75 -3.421875 C 1.78125 -3.359375 1.757812 -3.265625 1.6875 -3.140625 L 0.859375 -1.1875 C 0.734375 -0.9375 0.671875 -0.71875 0.671875 -0.53125 C 0.671875 -0.332031 0.78125 -0.234375 1 -0.234375 Z M 1 -0.234375 "/></g></g></g><g fill="#d8b445" fill-opacity="1"><g transform="translate(59.427367, 22.055072)"><g><path d="M 1.171875 -2.015625 C 1.160156 -1.984375 1.128906 -1.882812 1.078125 -1.71875 C 1.023438 -1.5625 0.976562 -1.40625 0.9375 -1.25 C 0.894531 -1.101562 0.875 -0.953125 0.875 -0.796875 C 0.875 -0.648438 0.910156 -0.515625 0.984375 -0.390625 C 1.054688 -0.265625 1.164062 -0.203125 1.3125 -0.203125 C 1.5625 -0.203125 1.804688 -0.367188 2.046875 -0.703125 C 2.285156 -1.046875 2.535156 -1.476562 2.796875 -2 C 2.859375 -2.09375 2.910156 -2.128906 2.953125 -2.109375 C 2.992188 -2.078125 3.003906 -2.039062 2.984375 -2 C 2.960938 -1.957031 2.914062 -1.859375 2.84375 -1.703125 C 2.78125 -1.554688 2.734375 -1.453125 2.703125 -1.390625 C 2.671875 -1.335938 2.613281 -1.234375 2.53125 -1.078125 C 2.457031 -0.929688 2.390625 -0.820312 2.328125 -0.75 C 2.265625 -0.675781 2.179688 -0.582031 2.078125 -0.46875 C 1.984375 -0.351562 1.890625 -0.265625 1.796875 -0.203125 C 1.554688 -0.0546875 1.328125 0.015625 1.109375 0.015625 C 0.890625 0.015625 0.71875 -0.03125 0.59375 -0.125 C 0.476562 -0.21875 0.410156 -0.316406 0.390625 -0.421875 C 0.367188 -0.523438 0.359375 -0.617188 0.359375 -0.703125 C 0.359375 -0.796875 0.359375 -0.90625 0.359375 -1.03125 C 0.378906 -1.257812 0.421875 -1.476562 0.484375 -1.6875 C 0.554688 -1.894531 0.597656 -2.007812 0.609375 -2.03125 C 0.765625 -2.613281 0.988281 -3.242188 1.28125 -3.921875 C 1.582031 -4.609375 1.835938 -5.125 2.046875 -5.46875 C 2.253906 -5.8125 2.414062 -6.046875 2.53125 -6.171875 C 2.769531 -6.421875 3.003906 -6.546875 3.234375 -6.546875 C 3.390625 -6.546875 3.492188 -6.429688 3.546875 -6.203125 C 3.554688 -6.160156 3.5625 -6.109375 3.5625 -6.046875 C 3.5625 -5.816406 3.476562 -5.519531 3.3125 -5.15625 C 2.71875 -3.820312 2.003906 -2.773438 1.171875 -2.015625 Z M 1.25 -2.359375 C 1.601562 -2.710938 1.953125 -3.164062 2.296875 -3.71875 C 2.648438 -4.269531 2.910156 -4.738281 3.078125 -5.125 C 3.242188 -5.507812 3.328125 -5.769531 3.328125 -5.90625 C 3.328125 -6.050781 3.300781 -6.125 3.25 -6.125 C 3.175781 -6.125 3.039062 -5.984375 2.84375 -5.703125 C 2.65625 -5.429688 2.394531 -4.9375 2.0625 -4.21875 C 1.726562 -3.507812 1.457031 -2.890625 1.25 -2.359375 Z M 1.25 -2.359375 "/></g></g></g><g fill="#d8b445" fill-opacity="1"><g transform="translate(62.206423, 22.055072)"><g><path d="M 2.015625 -4.0625 C 1.921875 -3.976562 1.816406 -3.9375 1.703125 -3.9375 C 1.585938 -3.9375 1.492188 -3.976562 1.421875 -4.0625 C 1.347656 -4.144531 1.320312 -4.25 1.34375 -4.375 C 1.363281 -4.488281 1.421875 -4.585938 1.515625 -4.671875 C 1.609375 -4.753906 1.710938 -4.796875 1.828125 -4.796875 C 1.953125 -4.796875 2.050781 -4.753906 2.125 -4.671875 C 2.195312 -4.585938 2.222656 -4.484375 2.203125 -4.359375 C 2.179688 -4.242188 2.117188 -4.144531 2.015625 -4.0625 Z M 1 -0.234375 C 1.132812 -0.234375 1.273438 -0.296875 1.421875 -0.421875 C 1.679688 -0.679688 2.007812 -1.207031 2.40625 -2 C 2.457031 -2.101562 2.503906 -2.132812 2.546875 -2.09375 C 2.566406 -2.082031 2.578125 -2.0625 2.578125 -2.03125 C 2.578125 -2 2.546875 -1.921875 2.484375 -1.796875 C 2.429688 -1.679688 2.378906 -1.570312 2.328125 -1.46875 C 2.285156 -1.375 2.195312 -1.21875 2.0625 -1 C 1.9375 -0.78125 1.820312 -0.609375 1.71875 -0.484375 C 1.4375 -0.160156 1.164062 0 0.90625 0 C 0.65625 0 0.472656 -0.0703125 0.359375 -0.21875 C 0.253906 -0.375 0.203125 -0.546875 0.203125 -0.734375 C 0.203125 -0.929688 0.242188 -1.140625 0.328125 -1.359375 L 1 -3.0625 C 1.019531 -3.101562 1.03125 -3.15625 1.03125 -3.21875 C 1.03125 -3.289062 0.988281 -3.382812 0.90625 -3.5 L 1.46875 -3.515625 C 1.632812 -3.515625 1.726562 -3.484375 1.75 -3.421875 C 1.78125 -3.359375 1.757812 -3.265625 1.6875 -3.140625 L 0.859375 -1.1875 C 0.734375 -0.9375 0.671875 -0.71875 0.671875 -0.53125 C 0.671875 -0.332031 0.78125 -0.234375 1 -0.234375 Z M 1 -0.234375 "/></g></g></g><g fill="#d8b445" fill-opacity="1"><g transform="translate(64.588561, 22.055072)"><g><path d="M 3.734375 -2.84375 C 3.734375 -2.539062 3.648438 -2.203125 3.484375 -1.828125 C 3.328125 -1.460938 3.109375 -1.109375 2.828125 -0.765625 C 2.546875 -0.421875 2.203125 -0.1875 1.796875 -0.0625 C 1.640625 -0.0195312 1.460938 0 1.265625 0 C 1.066406 0 0.847656 -0.0625 0.609375 -0.1875 L -0.375 2.296875 C -0.476562 2.515625 -0.578125 2.65625 -0.671875 2.71875 C -0.765625 2.789062 -0.851562 2.828125 -0.9375 2.828125 C -1.019531 2.828125 -1.066406 2.828125 -1.078125 2.828125 C -1.097656 2.828125 -1.160156 2.816406 -1.265625 2.796875 C -1.378906 2.773438 -1.460938 2.769531 -1.515625 2.78125 C -1.359375 2.632812 -0.96875 1.9375 -0.34375 0.6875 C 0.269531 -0.550781 0.617188 -1.382812 0.703125 -1.8125 C 0.628906 -1.707031 0.554688 -1.648438 0.484375 -1.640625 C 0.441406 -1.640625 0.441406 -1.675781 0.484375 -1.75 C 0.523438 -1.832031 0.597656 -1.988281 0.703125 -2.21875 C 0.828125 -2.519531 0.890625 -2.796875 0.890625 -3.046875 C 0.890625 -3.304688 0.835938 -3.457031 0.734375 -3.5 C 1.160156 -3.570312 1.40625 -3.601562 1.46875 -3.59375 C 1.539062 -3.59375 1.582031 -3.5625 1.59375 -3.5 C 1.613281 -3.445312 1.625 -3.390625 1.625 -3.328125 C 1.625 -2.898438 1.53125 -2.425781 1.34375 -1.90625 L 1.546875 -2.234375 C 1.796875 -2.640625 1.976562 -2.898438 2.09375 -3.015625 C 2.207031 -3.140625 2.332031 -3.265625 2.46875 -3.390625 C 2.664062 -3.578125 2.859375 -3.671875 3.046875 -3.671875 C 3.109375 -3.671875 3.160156 -3.664062 3.203125 -3.65625 C 3.554688 -3.5625 3.734375 -3.289062 3.734375 -2.84375 Z M 3.234375 -2.953125 C 3.234375 -3.054688 3.207031 -3.15625 3.15625 -3.25 C 3.113281 -3.34375 3.046875 -3.390625 2.953125 -3.390625 C 2.703125 -3.390625 2.414062 -3.160156 2.09375 -2.703125 C 1.769531 -2.253906 1.304688 -1.46875 0.703125 -0.34375 C 0.796875 -0.25 0.921875 -0.203125 1.078125 -0.203125 C 1.234375 -0.203125 1.457031 -0.328125 1.75 -0.578125 C 2.21875 -0.960938 2.609375 -1.445312 2.921875 -2.03125 C 3.128906 -2.40625 3.234375 -2.710938 3.234375 -2.953125 Z M 3.234375 -2.953125 "/></g></g></g></svg>