<svg xmlns="http://www.w3.org/2000/svg" xmlns:xlink="http://www.w3.org/1999/xlink" width="214" zoomAndPan="magnify" viewBox="0 0 160.5 48" height="64" preserveAspectRatio="xMidYMid meet" version="1.0"><defs><g/><clipPath id="357f4d76a4"><path d="M 11.621094 0 L 58.789062 0 L 58.789062 47.019531 L 11.621094 47.019531 Z M 11.621094 0 " clip-rule="nonzero"/></clipPath><clipPath id="a0ce1d4d09"><path d="M 35.203125 0 C 22.179688 0 11.621094 10.558594 11.621094 23.582031 C 11.621094 36.609375 22.179688 47.167969 35.203125 47.167969 C 48.230469 47.167969 58.789062 36.609375 58.789062 23.582031 C 58.789062 10.558594 48.230469 0 35.203125 0 Z M 35.203125 0 " clip-rule="nonzero"/></clipPath><clipPath id="f91a3f66b6"><path d="M 15.390625 3.769531 L 55.1875 3.769531 L 55.1875 43.566406 L 15.390625 43.566406 Z M 15.390625 3.769531 " clip-rule="nonzero"/></clipPath><clipPath id="3bc660fe7d"><path d="M 20.972656 12.976562 L 49.4375 12.976562 L 49.4375 32.921875 L 20.972656 32.921875 Z M 20.972656 12.976562 " clip-rule="nonzero"/></clipPath><clipPath id="c658fc55f7"><path d="M 20.972656 12.976562 L 49.714844 12.976562 L 49.714844 32.871094 L 20.972656 32.871094 Z M 20.972656 12.976562 " clip-rule="nonzero"/></clipPath><clipPath id="b0dad5c412"><path d="M 23.414062 28.265625 L 46.996094 28.265625 L 46.996094 32.367188 L 23.414062 32.367188 Z M 23.414062 28.265625 " clip-rule="nonzero"/></clipPath><clipPath id="caf1b0e62f"><path d="M 64.433594 31.179688 L 116.511719 31.179688 L 116.511719 37.613281 L 64.433594 37.613281 Z M 64.433594 31.179688 " clip-rule="nonzero"/></clipPath></defs><g clip-path="url(#357f4d76a4)"><g clip-path="url(#a0ce1d4d09)"><path stroke-linecap="butt" transform="matrix(0.736983, 0, 0, 0.736983, 11.621087, 0.00000195918)" fill="none" stroke-linejoin="miter" d="M 31.998093 -0.00000265839 C 14.326797 -0.00000265839 0.00000878419 14.326786 0.00000878419 31.998082 C 0.00000878419 49.674678 14.326797 64.001466 31.998093 64.001466 C 49.674689 64.001466 64.001478 49.674678 64.001478 31.998082 C 64.001478 14.326786 49.674689 -0.00000265839 31.998093 -0.00000265839 Z M 31.998093 -0.00000265839 " stroke="#ffbd59" stroke-width="2" stroke-opacity="1" stroke-miterlimit="4"/></g></g><g clip-path="url(#f91a3f66b6)"><path fill="#ffbd59" d="M 17.59375 22.429688 C 17.84375 18.84375 19.152344 15.476562 21.402344 12.648438 C 22.851562 13.277344 24.398438 13.808594 26.015625 14.226562 C 25.273438 16.8125 24.851562 19.566406 24.753906 22.429688 Z M 34.050781 34.121094 L 34.050781 41.222656 C 32.015625 40.539062 30.121094 38.195312 28.765625 34.671875 C 30.417969 34.363281 32.191406 34.183594 34.050781 34.121094 Z M 29.640625 40.488281 C 27.125 39.640625 24.832031 38.234375 22.917969 36.367188 C 24.074219 35.90625 25.332031 35.503906 26.671875 35.164062 C 27.472656 37.296875 28.480469 39.105469 29.640625 40.488281 Z M 26.890625 24.90625 L 34.050781 24.90625 L 34.050781 31.960938 C 32.003906 32.027344 30.003906 32.253906 28.085938 32.628906 C 27.398438 30.242188 26.988281 27.585938 26.890625 24.90625 Z M 34.050781 15.375 L 34.050781 22.429688 L 26.890625 22.429688 C 26.988281 19.75 27.398438 17.097656 28.085938 14.707031 C 30.011719 15.085938 32.015625 15.3125 34.050781 15.375 Z M 22.917969 10.972656 C 24.832031 9.101562 27.125 7.699219 29.640625 6.851562 C 28.484375 8.230469 27.472656 10.042969 26.671875 12.175781 C 25.335938 11.835938 24.074219 11.429688 22.917969 10.972656 Z M 28.765625 12.667969 C 30.121094 9.140625 32.019531 6.796875 34.050781 6.121094 L 34.050781 13.21875 C 32.1875 13.15625 30.414062 12.972656 28.765625 12.667969 Z M 26.015625 33.109375 C 24.402344 33.53125 22.851562 34.0625 21.402344 34.691406 C 19.152344 31.863281 17.84375 28.496094 17.59375 24.90625 L 24.753906 24.90625 C 24.847656 27.769531 25.273438 30.523438 26.015625 33.109375 Z M 52.984375 24.898438 C 52.734375 28.492188 51.425781 31.867188 49.179688 34.691406 C 47.722656 34.0625 46.175781 33.53125 44.566406 33.109375 C 45.304688 30.527344 45.730469 27.769531 45.824219 24.898438 Z M 36.527344 13.21875 L 36.527344 6.121094 C 38.5625 6.796875 40.457031 9.140625 41.8125 12.667969 C 40.164062 12.972656 38.390625 13.15625 36.527344 13.21875 Z M 43.90625 12.175781 C 43.109375 10.042969 42.097656 8.230469 40.941406 6.851562 C 43.453125 7.699219 45.746094 9.101562 47.664062 10.972656 C 46.503906 11.429688 45.246094 11.835938 43.90625 12.175781 Z M 43.6875 22.429688 L 36.527344 22.429688 L 36.527344 15.375 C 38.570312 15.308594 40.574219 15.085938 42.492188 14.710938 C 43.183594 17.09375 43.59375 19.746094 43.6875 22.429688 Z M 45.824219 22.429688 C 45.730469 19.570312 45.308594 16.816406 44.5625 14.230469 C 46.179688 13.808594 47.726562 13.277344 49.179688 12.648438 C 51.425781 15.476562 52.734375 18.84375 52.984375 22.433594 L 45.824219 22.433594 Z M 36.527344 31.964844 L 36.527344 24.898438 L 43.6875 24.898438 C 43.589844 27.589844 43.183594 30.246094 42.496094 32.628906 C 40.574219 32.25 38.570312 32.027344 36.527344 31.964844 Z M 47.664062 36.367188 C 45.746094 38.234375 43.453125 39.640625 40.941406 40.488281 C 42.097656 39.105469 43.109375 37.296875 43.90625 35.164062 C 45.25 35.503906 46.507812 35.90625 47.664062 36.367188 Z M 41.8125 34.671875 C 40.457031 38.195312 38.5625 40.535156 36.527344 41.222656 L 36.527344 34.121094 C 38.382812 34.183594 40.15625 34.363281 41.8125 34.671875 Z M 35.289062 3.769531 C 24.320312 3.769531 15.390625 12.699219 15.390625 23.667969 C 15.390625 34.640625 24.320312 43.566406 35.289062 43.566406 C 46.261719 43.566406 55.1875 34.640625 55.1875 23.667969 C 55.1875 12.699219 46.261719 3.769531 35.289062 3.769531 Z M 35.289062 3.769531 " fill-opacity="1" fill-rule="evenodd"/></g><g clip-path="url(#3bc660fe7d)"><path fill="#ffffff" d="M 20.972656 12.976562 L 49.4375 12.976562 L 49.4375 32.921875 L 20.972656 32.921875 Z M 20.972656 12.976562 " fill-opacity="1" fill-rule="nonzero"/></g><g clip-path="url(#c658fc55f7)"><path stroke-linecap="butt" transform="matrix(0.744439, 0, 0, 0.735281, 20.971585, 12.976624)" fill="none" stroke-linejoin="miter" d="M 0.00143921 -0.0000832487 L 38.610633 -0.0000832487 L 38.610633 27.056976 L 0.00143921 27.056976 Z M 0.00143921 -0.0000832487 " stroke="#ffffff" stroke-width="4" stroke-opacity="1" stroke-miterlimit="4"/></g><path stroke-linecap="round" transform="matrix(0.729443, 0.00704282, -0.00711529, 0.736948, 19.951752, 9.732205)" fill="none" stroke-linejoin="miter" d="M 1.99741 1.998075 L 39.429701 2.000783 " stroke="#ffbd59" stroke-width="4" stroke-opacity="1" stroke-miterlimit="4"/><path stroke-linecap="round" transform="matrix(0.733337, 0, 0, 0.736983, 18.905034, 32.923639)" fill="none" stroke-linejoin="miter" d="M 1.999163 2.001131 L 42.231575 2.001131 " stroke="#ffbd59" stroke-width="4" stroke-opacity="1" stroke-miterlimit="4"/><path fill="#ffbd59" d="M 20.210938 14.296875 L 19.4375 13.027344 L 21.960938 11.496094 L 22.730469 12.765625 " fill-opacity="1" fill-rule="nonzero"/><g fill="#ffbd59" fill-opacity="1"><g transform="translate(22.50396, 18.865684)"><g><path d="M 0.25 -3.515625 C 0.25 -3.585938 0.28125 -3.625 0.34375 -3.625 L 2.984375 -3.625 C 3.046875 -3.625 3.078125 -3.59375 3.078125 -3.53125 L 3.078125 -2.953125 C 3.078125 -2.867188 3.03125 -2.828125 2.9375 -2.828125 L 1.484375 -2.828125 C 1.398438 -2.828125 1.359375 -2.796875 1.359375 -2.734375 L 1.359375 -2.3125 C 1.359375 -2.28125 1.363281 -2.253906 1.375 -2.234375 C 1.394531 -2.222656 1.421875 -2.21875 1.453125 -2.21875 L 2.328125 -2.21875 C 2.398438 -2.21875 2.4375 -2.1875 2.4375 -2.125 L 2.4375 -1.515625 C 2.4375 -1.453125 2.40625 -1.421875 2.34375 -1.421875 L 1.4375 -1.421875 C 1.414062 -1.421875 1.394531 -1.414062 1.375 -1.40625 C 1.363281 -1.394531 1.359375 -1.378906 1.359375 -1.359375 L 1.359375 -0.875 C 1.359375 -0.84375 1.363281 -0.820312 1.375 -0.8125 C 1.382812 -0.800781 1.398438 -0.796875 1.421875 -0.796875 L 3.015625 -0.796875 C 3.085938 -0.796875 3.125 -0.765625 3.125 -0.703125 L 3.125 -0.109375 C 3.125 -0.078125 3.113281 -0.0507812 3.09375 -0.03125 C 3.070312 -0.0078125 3.039062 0 3 0 L 0.390625 0 C 0.335938 0 0.300781 -0.0078125 0.28125 -0.03125 C 0.257812 -0.0507812 0.25 -0.0820312 0.25 -0.125 Z M 0.25 -3.515625 "/></g></g></g><g fill="#ffbd59" fill-opacity="1"><g transform="translate(25.78649, 18.865684)"><g><path d="M 3.515625 -0.25 C 3.554688 -0.175781 3.578125 -0.117188 3.578125 -0.078125 C 3.578125 -0.0234375 3.535156 0 3.453125 0 L 2.5625 0 C 2.46875 0 2.398438 -0.03125 2.359375 -0.09375 L 1.828125 -1.015625 C 1.796875 -1.066406 1.769531 -1.09375 1.75 -1.09375 C 1.726562 -1.09375 1.707031 -1.066406 1.6875 -1.015625 L 1.15625 -0.09375 C 1.125 -0.03125 1.054688 0 0.953125 0 L 0.25 0 C 0.164062 0 0.125 -0.0234375 0.125 -0.078125 C 0.125 -0.109375 0.144531 -0.164062 0.1875 -0.25 L 1.15625 -1.734375 C 1.175781 -1.773438 1.1875 -1.804688 1.1875 -1.828125 C 1.1875 -1.847656 1.175781 -1.878906 1.15625 -1.921875 L 0.171875 -3.453125 C 0.148438 -3.472656 0.140625 -3.503906 0.140625 -3.546875 C 0.140625 -3.597656 0.175781 -3.625 0.25 -3.625 L 1.171875 -3.625 C 1.222656 -3.625 1.257812 -3.613281 1.28125 -3.59375 C 1.3125 -3.582031 1.335938 -3.5625 1.359375 -3.53125 L 1.8125 -2.734375 C 1.820312 -2.710938 1.835938 -2.703125 1.859375 -2.703125 C 1.878906 -2.703125 1.898438 -2.710938 1.921875 -2.734375 L 2.359375 -3.53125 C 2.378906 -3.5625 2.398438 -3.582031 2.421875 -3.59375 C 2.453125 -3.613281 2.492188 -3.625 2.546875 -3.625 L 3.3125 -3.625 C 3.375 -3.625 3.40625 -3.601562 3.40625 -3.5625 C 3.40625 -3.53125 3.394531 -3.5 3.375 -3.46875 L 2.453125 -2.046875 C 2.429688 -2.015625 2.421875 -1.988281 2.421875 -1.96875 C 2.421875 -1.945312 2.429688 -1.914062 2.453125 -1.875 Z M 3.515625 -0.25 "/></g></g></g><g fill="#ffbd59" fill-opacity="1"><g transform="translate(29.484839, 18.865684)"><g><path d="M 0.140625 -3.515625 C 0.140625 -3.546875 0.148438 -3.570312 0.171875 -3.59375 C 0.191406 -3.613281 0.222656 -3.625 0.265625 -3.625 L 3.1875 -3.625 C 3.226562 -3.625 3.257812 -3.613281 3.28125 -3.59375 C 3.300781 -3.570312 3.3125 -3.546875 3.3125 -3.515625 L 3.3125 -2.9375 C 3.3125 -2.875 3.273438 -2.84375 3.203125 -2.84375 L 2.328125 -2.84375 C 2.296875 -2.84375 2.28125 -2.828125 2.28125 -2.796875 L 2.28125 -0.109375 C 2.28125 -0.0664062 2.269531 -0.0351562 2.25 -0.015625 C 2.226562 -0.00390625 2.207031 0 2.1875 0 L 1.25 0 C 1.1875 0 1.15625 -0.03125 1.15625 -0.09375 L 1.15625 -2.765625 C 1.15625 -2.816406 1.140625 -2.84375 1.109375 -2.84375 L 0.25 -2.84375 C 0.175781 -2.84375 0.140625 -2.875 0.140625 -2.9375 Z M 0.140625 -3.515625 "/></g></g></g><g fill="#ffbd59" fill-opacity="1"><g transform="translate(32.928803, 18.865684)"><g><path d="M 3.421875 -0.15625 C 3.429688 -0.144531 3.4375 -0.128906 3.4375 -0.109375 C 3.4375 -0.078125 3.425781 -0.0507812 3.40625 -0.03125 C 3.394531 -0.0078125 3.375 0 3.34375 0 L 2.390625 0 C 2.316406 0 2.273438 -0.0351562 2.265625 -0.109375 L 1.796875 -1.359375 C 1.785156 -1.390625 1.769531 -1.410156 1.75 -1.421875 C 1.726562 -1.429688 1.691406 -1.4375 1.640625 -1.4375 L 1.421875 -1.4375 C 1.398438 -1.4375 1.382812 -1.429688 1.375 -1.421875 C 1.363281 -1.410156 1.359375 -1.398438 1.359375 -1.390625 L 1.359375 -0.140625 C 1.359375 -0.0859375 1.34375 -0.0507812 1.3125 -0.03125 C 1.289062 -0.0078125 1.253906 0 1.203125 0 L 0.375 0 C 0.332031 0 0.300781 -0.0078125 0.28125 -0.03125 C 0.257812 -0.0507812 0.25 -0.0820312 0.25 -0.125 L 0.25 -3.515625 C 0.25 -3.585938 0.28125 -3.625 0.34375 -3.625 L 1.984375 -3.625 C 2.453125 -3.625 2.816406 -3.535156 3.078125 -3.359375 C 3.335938 -3.179688 3.46875 -2.925781 3.46875 -2.59375 C 3.46875 -2.363281 3.40625 -2.160156 3.28125 -1.984375 C 3.164062 -1.804688 3.015625 -1.6875 2.828125 -1.625 C 2.804688 -1.613281 2.796875 -1.59375 2.796875 -1.5625 C 2.796875 -1.5625 2.800781 -1.550781 2.8125 -1.53125 Z M 1.9375 -2.171875 C 2.0625 -2.171875 2.15625 -2.203125 2.21875 -2.265625 C 2.289062 -2.328125 2.328125 -2.414062 2.328125 -2.53125 C 2.328125 -2.644531 2.285156 -2.734375 2.203125 -2.796875 C 2.117188 -2.867188 2.019531 -2.90625 1.90625 -2.90625 L 1.484375 -2.90625 C 1.429688 -2.90625 1.394531 -2.894531 1.375 -2.875 C 1.363281 -2.863281 1.359375 -2.84375 1.359375 -2.8125 L 1.359375 -2.28125 C 1.359375 -2.238281 1.363281 -2.207031 1.375 -2.1875 C 1.394531 -2.175781 1.421875 -2.171875 1.453125 -2.171875 Z M 1.9375 -2.171875 "/></g></g></g><g fill="#ffbd59" fill-opacity="1"><g transform="translate(36.543985, 18.865684)"><g><path d="M 0.25 -3.515625 C 0.25 -3.585938 0.28125 -3.625 0.34375 -3.625 L 2.984375 -3.625 C 3.046875 -3.625 3.078125 -3.59375 3.078125 -3.53125 L 3.078125 -2.953125 C 3.078125 -2.867188 3.03125 -2.828125 2.9375 -2.828125 L 1.484375 -2.828125 C 1.398438 -2.828125 1.359375 -2.796875 1.359375 -2.734375 L 1.359375 -2.3125 C 1.359375 -2.28125 1.363281 -2.253906 1.375 -2.234375 C 1.394531 -2.222656 1.421875 -2.21875 1.453125 -2.21875 L 2.328125 -2.21875 C 2.398438 -2.21875 2.4375 -2.1875 2.4375 -2.125 L 2.4375 -1.515625 C 2.4375 -1.453125 2.40625 -1.421875 2.34375 -1.421875 L 1.4375 -1.421875 C 1.414062 -1.421875 1.394531 -1.414062 1.375 -1.40625 C 1.363281 -1.394531 1.359375 -1.378906 1.359375 -1.359375 L 1.359375 -0.875 C 1.359375 -0.84375 1.363281 -0.820312 1.375 -0.8125 C 1.382812 -0.800781 1.398438 -0.796875 1.421875 -0.796875 L 3.015625 -0.796875 C 3.085938 -0.796875 3.125 -0.765625 3.125 -0.703125 L 3.125 -0.109375 C 3.125 -0.078125 3.113281 -0.0507812 3.09375 -0.03125 C 3.070312 -0.0078125 3.039062 0 3 0 L 0.390625 0 C 0.335938 0 0.300781 -0.0078125 0.28125 -0.03125 C 0.257812 -0.0507812 0.25 -0.0820312 0.25 -0.125 Z M 0.25 -3.515625 "/></g></g></g><g fill="#ffbd59" fill-opacity="1"><g transform="translate(39.826516, 18.865684)"><g><path d="M 0.375 0 C 0.34375 0 0.3125 -0.0078125 0.28125 -0.03125 C 0.257812 -0.0625 0.25 -0.0976562 0.25 -0.140625 L 0.25 -3.515625 C 0.25 -3.554688 0.253906 -3.582031 0.265625 -3.59375 C 0.285156 -3.613281 0.316406 -3.625 0.359375 -3.625 L 1.71875 -3.625 C 1.769531 -3.625 1.800781 -3.617188 1.8125 -3.609375 C 1.832031 -3.597656 1.847656 -3.578125 1.859375 -3.546875 L 2.375 -1.984375 C 2.382812 -1.960938 2.394531 -1.953125 2.40625 -1.953125 C 2.414062 -1.953125 2.425781 -1.960938 2.4375 -1.984375 L 2.890625 -3.484375 C 2.910156 -3.578125 2.953125 -3.625 3.015625 -3.625 L 4.4375 -3.625 C 4.5 -3.625 4.53125 -3.59375 4.53125 -3.53125 L 4.53125 -0.140625 C 4.53125 -0.0859375 4.515625 -0.0507812 4.484375 -0.03125 C 4.460938 -0.0078125 4.425781 0 4.375 0 L 3.546875 0 C 3.492188 0 3.457031 -0.0078125 3.4375 -0.03125 C 3.414062 -0.0507812 3.40625 -0.0820312 3.40625 -0.125 L 3.40625 -2.3125 C 3.40625 -2.34375 3.398438 -2.359375 3.390625 -2.359375 C 3.378906 -2.359375 3.367188 -2.34375 3.359375 -2.3125 L 2.65625 -0.09375 C 2.625 -0.03125 2.582031 0 2.53125 0 L 2.015625 0 C 1.960938 0 1.925781 -0.03125 1.90625 -0.09375 L 1.203125 -2.28125 C 1.191406 -2.3125 1.175781 -2.328125 1.15625 -2.328125 C 1.144531 -2.328125 1.140625 -2.304688 1.140625 -2.265625 L 1.140625 -0.109375 C 1.140625 -0.0664062 1.128906 -0.0351562 1.109375 -0.015625 C 1.097656 -0.00390625 1.070312 0 1.03125 0 Z M 0.375 0 "/></g></g></g><g fill="#ffbd59" fill-opacity="1"><g transform="translate(44.605991, 18.865684)"><g><path d="M 0.25 -3.515625 C 0.25 -3.585938 0.28125 -3.625 0.34375 -3.625 L 2.984375 -3.625 C 3.046875 -3.625 3.078125 -3.59375 3.078125 -3.53125 L 3.078125 -2.953125 C 3.078125 -2.867188 3.03125 -2.828125 2.9375 -2.828125 L 1.484375 -2.828125 C 1.398438 -2.828125 1.359375 -2.796875 1.359375 -2.734375 L 1.359375 -2.3125 C 1.359375 -2.28125 1.363281 -2.253906 1.375 -2.234375 C 1.394531 -2.222656 1.421875 -2.21875 1.453125 -2.21875 L 2.328125 -2.21875 C 2.398438 -2.21875 2.4375 -2.1875 2.4375 -2.125 L 2.4375 -1.515625 C 2.4375 -1.453125 2.40625 -1.421875 2.34375 -1.421875 L 1.4375 -1.421875 C 1.414062 -1.421875 1.394531 -1.414062 1.375 -1.40625 C 1.363281 -1.394531 1.359375 -1.378906 1.359375 -1.359375 L 1.359375 -0.875 C 1.359375 -0.84375 1.363281 -0.820312 1.375 -0.8125 C 1.382812 -0.800781 1.398438 -0.796875 1.421875 -0.796875 L 3.015625 -0.796875 C 3.085938 -0.796875 3.125 -0.765625 3.125 -0.703125 L 3.125 -0.109375 C 3.125 -0.078125 3.113281 -0.0507812 3.09375 -0.03125 C 3.070312 -0.0078125 3.039062 0 3 0 L 0.390625 0 C 0.335938 0 0.300781 -0.0078125 0.28125 -0.03125 C 0.257812 -0.0507812 0.25 -0.0820312 0.25 -0.125 Z M 0.25 -3.515625 "/></g></g></g><g fill="#ffbd59" fill-opacity="1"><g transform="translate(23.268848, 24.312482)"><g><path d="M 2.015625 -2.21875 C 1.953125 -2.289062 1.878906 -2.34375 1.796875 -2.375 C 1.722656 -2.414062 1.617188 -2.4375 1.484375 -2.4375 C 1.335938 -2.4375 1.226562 -2.414062 1.15625 -2.375 C 1.09375 -2.332031 1.0625 -2.285156 1.0625 -2.234375 C 1.0625 -2.128906 1.148438 -2.054688 1.328125 -2.015625 L 2 -1.84375 C 2.25 -1.78125 2.4375 -1.671875 2.5625 -1.515625 C 2.6875 -1.359375 2.75 -1.171875 2.75 -0.953125 C 2.75 -0.753906 2.695312 -0.578125 2.59375 -0.421875 C 2.488281 -0.273438 2.335938 -0.160156 2.140625 -0.078125 C 1.941406 0.00390625 1.707031 0.046875 1.4375 0.046875 C 1.144531 0.046875 0.875 0 0.625 -0.09375 C 0.375 -0.195312 0.203125 -0.332031 0.109375 -0.5 C 0.0976562 -0.519531 0.09375 -0.539062 0.09375 -0.5625 C 0.09375 -0.582031 0.109375 -0.601562 0.140625 -0.625 L 0.5625 -0.921875 C 0.59375 -0.941406 0.617188 -0.953125 0.640625 -0.953125 C 0.671875 -0.953125 0.695312 -0.9375 0.71875 -0.90625 C 0.8125 -0.789062 0.90625 -0.707031 1 -0.65625 C 1.09375 -0.613281 1.21875 -0.59375 1.375 -0.59375 C 1.53125 -0.59375 1.648438 -0.613281 1.734375 -0.65625 C 1.828125 -0.695312 1.875 -0.753906 1.875 -0.828125 C 1.875 -0.878906 1.847656 -0.921875 1.796875 -0.953125 C 1.753906 -0.992188 1.691406 -1.023438 1.609375 -1.046875 L 0.984375 -1.1875 C 0.742188 -1.25 0.550781 -1.363281 0.40625 -1.53125 C 0.257812 -1.695312 0.1875 -1.882812 0.1875 -2.09375 C 0.1875 -2.269531 0.238281 -2.429688 0.34375 -2.578125 C 0.445312 -2.734375 0.59375 -2.851562 0.78125 -2.9375 C 0.976562 -3.019531 1.203125 -3.0625 1.453125 -3.0625 C 1.691406 -3.0625 1.914062 -3.019531 2.125 -2.9375 C 2.332031 -2.863281 2.484375 -2.757812 2.578125 -2.625 C 2.597656 -2.601562 2.609375 -2.582031 2.609375 -2.5625 C 2.609375 -2.539062 2.597656 -2.519531 2.578125 -2.5 L 2.140625 -2.1875 C 2.117188 -2.175781 2.101562 -2.171875 2.09375 -2.171875 C 2.070312 -2.171875 2.046875 -2.1875 2.015625 -2.21875 Z M 2.015625 -2.21875 "/></g></g></g><g fill="#ffbd59" fill-opacity="1"><g transform="translate(26.13306, 24.312482)"><g><path d="M 1.0625 -3.03125 C 1.113281 -3.03125 1.140625 -3 1.140625 -2.9375 L 1.140625 -0.125 C 1.140625 -0.0703125 1.128906 -0.0351562 1.109375 -0.015625 C 1.085938 -0.00390625 1.050781 0 1 0 L 0.328125 0 C 0.285156 0 0.253906 -0.00390625 0.234375 -0.015625 C 0.222656 -0.0351562 0.21875 -0.0664062 0.21875 -0.109375 L 0.21875 -2.9375 C 0.21875 -2.96875 0.222656 -2.988281 0.234375 -3 C 0.242188 -3.019531 0.265625 -3.03125 0.296875 -3.03125 Z M 1.0625 -3.03125 "/></g></g></g><g fill="#ffbd59" fill-opacity="1"><g transform="translate(27.48549, 24.312482)"><g><path d="M 0.109375 -2.9375 C 0.109375 -2.957031 0.117188 -2.976562 0.140625 -3 C 0.160156 -3.019531 0.1875 -3.03125 0.21875 -3.03125 L 2.65625 -3.03125 C 2.6875 -3.03125 2.707031 -3.019531 2.71875 -3 C 2.738281 -2.976562 2.75 -2.957031 2.75 -2.9375 L 2.75 -2.453125 C 2.75 -2.398438 2.722656 -2.375 2.671875 -2.375 L 1.9375 -2.375 C 1.90625 -2.375 1.890625 -2.359375 1.890625 -2.328125 L 1.890625 -0.09375 C 1.890625 -0.0625 1.882812 -0.0351562 1.875 -0.015625 C 1.863281 -0.00390625 1.84375 0 1.8125 0 L 1.046875 0 C 0.992188 0 0.96875 -0.0234375 0.96875 -0.078125 L 0.96875 -2.3125 C 0.96875 -2.351562 0.953125 -2.375 0.921875 -2.375 L 0.203125 -2.375 C 0.140625 -2.375 0.109375 -2.398438 0.109375 -2.453125 Z M 0.109375 -2.9375 "/></g></g></g><g fill="#ffbd59" fill-opacity="1"><g transform="translate(30.361958, 24.312482)"><g><path d="M 2.796875 -1.1875 C 2.796875 -0.75 2.679688 -0.429688 2.453125 -0.234375 C 2.222656 -0.046875 1.898438 0.046875 1.484375 0.046875 C 1.015625 0.046875 0.675781 -0.0625 0.46875 -0.28125 C 0.269531 -0.5 0.171875 -0.832031 0.171875 -1.28125 L 0.171875 -2.9375 C 0.171875 -2.96875 0.175781 -2.988281 0.1875 -3 C 0.207031 -3.019531 0.226562 -3.03125 0.25 -3.03125 L 1.03125 -3.03125 C 1.082031 -3.03125 1.109375 -3 1.109375 -2.9375 L 1.109375 -1.171875 C 1.109375 -0.972656 1.144531 -0.828125 1.21875 -0.734375 C 1.300781 -0.648438 1.410156 -0.609375 1.546875 -0.609375 C 1.691406 -0.609375 1.804688 -0.648438 1.890625 -0.734375 C 1.984375 -0.828125 2.03125 -0.976562 2.03125 -1.1875 L 2.03125 -2.9375 C 2.03125 -3 2.054688 -3.03125 2.109375 -3.03125 L 2.71875 -3.03125 C 2.769531 -3.03125 2.796875 -3 2.796875 -2.9375 Z M 2.796875 -1.1875 "/></g></g></g><g fill="#ffbd59" fill-opacity="1"><g transform="translate(33.336489, 24.312482)"><g><path d="M 0.171875 0 C 0.148438 0 0.132812 -0.00390625 0.125 -0.015625 C 0.113281 -0.0351562 0.109375 -0.0546875 0.109375 -0.078125 C 0.109375 -0.0976562 0.109375 -0.125 0.109375 -0.15625 L 1.09375 -2.9375 C 1.113281 -2.96875 1.128906 -2.988281 1.140625 -3 C 1.160156 -3.019531 1.1875 -3.03125 1.21875 -3.03125 L 2.03125 -3.03125 C 2.0625 -3.03125 2.085938 -3.019531 2.109375 -3 C 2.140625 -2.976562 2.160156 -2.953125 2.171875 -2.921875 L 3.15625 -0.140625 C 3.15625 -0.117188 3.15625 -0.101562 3.15625 -0.09375 C 3.15625 -0.0625 3.148438 -0.0351562 3.140625 -0.015625 C 3.128906 -0.00390625 3.113281 0 3.09375 0 L 2.296875 0 C 2.253906 0 2.222656 -0.0195312 2.203125 -0.0625 L 2.046875 -0.53125 C 2.035156 -0.550781 2.023438 -0.566406 2.015625 -0.578125 C 2.015625 -0.585938 2.003906 -0.59375 1.984375 -0.59375 L 1.125 -0.59375 C 1.09375 -0.59375 1.070312 -0.578125 1.0625 -0.546875 L 0.890625 -0.0625 C 0.878906 -0.0195312 0.847656 0 0.796875 0 Z M 1.78125 -1.28125 C 1.8125 -1.28125 1.828125 -1.296875 1.828125 -1.328125 C 1.828125 -1.328125 1.820312 -1.335938 1.8125 -1.359375 L 1.578125 -2.0625 C 1.566406 -2.070312 1.554688 -2.078125 1.546875 -2.078125 C 1.535156 -2.078125 1.53125 -2.070312 1.53125 -2.0625 L 1.28125 -1.359375 C 1.269531 -1.347656 1.265625 -1.335938 1.265625 -1.328125 C 1.265625 -1.296875 1.28125 -1.28125 1.3125 -1.28125 Z M 1.78125 -1.28125 "/></g></g></g><g fill="#ffbd59" fill-opacity="1"><g transform="translate(36.601118, 24.312482)"><g><path d="M 0.109375 -2.9375 C 0.109375 -2.957031 0.117188 -2.976562 0.140625 -3 C 0.160156 -3.019531 0.1875 -3.03125 0.21875 -3.03125 L 2.65625 -3.03125 C 2.6875 -3.03125 2.707031 -3.019531 2.71875 -3 C 2.738281 -2.976562 2.75 -2.957031 2.75 -2.9375 L 2.75 -2.453125 C 2.75 -2.398438 2.722656 -2.375 2.671875 -2.375 L 1.9375 -2.375 C 1.90625 -2.375 1.890625 -2.359375 1.890625 -2.328125 L 1.890625 -0.09375 C 1.890625 -0.0625 1.882812 -0.0351562 1.875 -0.015625 C 1.863281 -0.00390625 1.84375 0 1.8125 0 L 1.046875 0 C 0.992188 0 0.96875 -0.0234375 0.96875 -0.078125 L 0.96875 -2.3125 C 0.96875 -2.351562 0.953125 -2.375 0.921875 -2.375 L 0.203125 -2.375 C 0.140625 -2.375 0.109375 -2.398438 0.109375 -2.453125 Z M 0.109375 -2.9375 "/></g></g></g><g fill="#ffbd59" fill-opacity="1"><g transform="translate(39.477585, 24.312482)"><g><path d="M 1.0625 -3.03125 C 1.113281 -3.03125 1.140625 -3 1.140625 -2.9375 L 1.140625 -0.125 C 1.140625 -0.0703125 1.128906 -0.0351562 1.109375 -0.015625 C 1.085938 -0.00390625 1.050781 0 1 0 L 0.328125 0 C 0.285156 0 0.253906 -0.00390625 0.234375 -0.015625 C 0.222656 -0.0351562 0.21875 -0.0664062 0.21875 -0.109375 L 0.21875 -2.9375 C 0.21875 -2.96875 0.222656 -2.988281 0.234375 -3 C 0.242188 -3.019531 0.265625 -3.03125 0.296875 -3.03125 Z M 1.0625 -3.03125 "/></g></g></g><g fill="#ffbd59" fill-opacity="1"><g transform="translate(40.830016, 24.312482)"><g><path d="M 1.59375 0.046875 C 1.300781 0.046875 1.039062 -0.015625 0.8125 -0.140625 C 0.59375 -0.273438 0.421875 -0.457031 0.296875 -0.6875 C 0.179688 -0.914062 0.125 -1.1875 0.125 -1.5 C 0.125 -1.8125 0.179688 -2.082031 0.296875 -2.3125 C 0.421875 -2.550781 0.59375 -2.734375 0.8125 -2.859375 C 1.039062 -2.992188 1.300781 -3.0625 1.59375 -3.0625 C 1.882812 -3.0625 2.140625 -2.992188 2.359375 -2.859375 C 2.578125 -2.734375 2.742188 -2.550781 2.859375 -2.3125 C 2.984375 -2.082031 3.046875 -1.8125 3.046875 -1.5 C 3.046875 -1.195312 2.988281 -0.925781 2.875 -0.6875 C 2.757812 -0.457031 2.585938 -0.273438 2.359375 -0.140625 C 2.140625 -0.015625 1.882812 0.046875 1.59375 0.046875 Z M 1.59375 -0.59375 C 1.71875 -0.59375 1.8125 -0.617188 1.875 -0.671875 C 1.945312 -0.734375 2 -0.828125 2.03125 -0.953125 C 2.0625 -1.085938 2.078125 -1.269531 2.078125 -1.5 C 2.078125 -1.832031 2.039062 -2.070312 1.96875 -2.21875 C 1.894531 -2.363281 1.769531 -2.4375 1.59375 -2.4375 C 1.414062 -2.4375 1.285156 -2.363281 1.203125 -2.21875 C 1.128906 -2.070312 1.09375 -1.832031 1.09375 -1.5 C 1.09375 -1.269531 1.109375 -1.085938 1.140625 -0.953125 C 1.171875 -0.828125 1.222656 -0.734375 1.296875 -0.671875 C 1.367188 -0.617188 1.46875 -0.59375 1.59375 -0.59375 Z M 1.59375 -0.59375 "/></g></g></g><g fill="#ffbd59" fill-opacity="1"><g transform="translate(44.017009, 24.312482)"><g><path d="M 2.828125 -3.03125 C 2.867188 -3.03125 2.890625 -3.003906 2.890625 -2.953125 L 2.890625 -0.078125 C 2.890625 -0.0546875 2.878906 -0.0351562 2.859375 -0.015625 C 2.847656 -0.00390625 2.828125 0 2.796875 0 L 2.234375 0 C 2.210938 0 2.191406 -0.00390625 2.171875 -0.015625 C 2.160156 -0.0234375 2.144531 -0.0390625 2.125 -0.0625 L 1 -1.578125 C 0.988281 -1.597656 0.976562 -1.601562 0.96875 -1.59375 C 0.96875 -1.59375 0.96875 -1.585938 0.96875 -1.578125 L 0.96875 -0.09375 C 0.96875 -0.0625 0.957031 -0.0351562 0.9375 -0.015625 C 0.925781 -0.00390625 0.90625 0 0.875 0 L 0.3125 0 C 0.25 0 0.21875 -0.0234375 0.21875 -0.078125 L 0.21875 -2.9375 C 0.21875 -3 0.242188 -3.03125 0.296875 -3.03125 L 0.96875 -3.03125 C 1 -3.03125 1.023438 -3.023438 1.046875 -3.015625 C 1.066406 -3.003906 1.085938 -2.984375 1.109375 -2.953125 L 2.078125 -1.59375 C 2.097656 -1.5625 2.113281 -1.546875 2.125 -1.546875 C 2.144531 -1.546875 2.15625 -1.566406 2.15625 -1.609375 L 2.15625 -2.9375 C 2.15625 -3 2.179688 -3.03125 2.234375 -3.03125 Z M 2.828125 -3.03125 "/></g></g></g><g fill="#ffbd59" fill-opacity="1"><g transform="translate(32.510076, 27.234488)"><g><path d="M 0.6875 0 L 0.375 0 L 0.046875 -1.453125 L 0.328125 -1.453125 L 0.546875 -0.4375 L 0.5625 -0.4375 L 0.828125 -1.453125 L 1.078125 -1.453125 L 1.34375 -0.4375 L 1.359375 -0.4375 L 1.578125 -1.453125 L 1.859375 -1.453125 L 1.53125 0 L 1.203125 0 L 0.953125 -0.9375 L 0.9375 -0.9375 Z M 0.6875 0 "/></g></g><g transform="translate(34.415665, 27.234488)"><g><path d="M 0.46875 0 L 0.1875 0 L 0.1875 -1.453125 L 0.46875 -1.453125 Z M 0.46875 0 "/></g></g><g transform="translate(35.08272, 27.234488)"><g><path d="M 1.15625 -1.453125 L 1.15625 -1.203125 L 0.75 -1.203125 L 0.75 0 L 0.453125 0 L 0.453125 -1.203125 L 0.046875 -1.203125 L 0.046875 -1.453125 Z M 1.15625 -1.453125 "/></g></g><g transform="translate(36.289394, 27.234488)"><g><path d="M 1.125 -0.90625 L 1.125 -1.453125 L 1.40625 -1.453125 L 1.40625 0 L 1.125 0 L 1.125 -0.65625 L 0.46875 -0.65625 L 0.46875 0 L 0.1875 0 L 0.1875 -1.453125 L 0.46875 -1.453125 L 0.46875 -0.90625 Z M 1.125 -0.90625 "/></g></g></g><g clip-path="url(#b0dad5c412)"><path fill="#ffbd59" d="M 23.414062 28.265625 L 46.996094 28.265625 L 46.996094 32.367188 L 23.414062 32.367188 Z M 23.414062 28.265625 " fill-opacity="1" fill-rule="nonzero"/></g><g fill="#000000" fill-opacity="1"><g transform="translate(24.728887, 31.082146)"><g><path d="M 1.484375 -1.9375 L 1.484375 -1.625 L 0.640625 -1.625 L 0.640625 -1.109375 L 1.40625 -1.109375 L 1.40625 -0.78125 L 0.640625 -0.78125 L 0.640625 0 L 0.25 0 L 0.25 -1.9375 Z M 1.484375 -1.9375 "/></g></g></g><g fill="#000000" fill-opacity="1"><g transform="translate(26.295338, 31.082146)"><g><path d="M 1.859375 0 L 1.453125 0 L 1.3125 -0.453125 L 0.5625 -0.453125 L 0.421875 0 L 0.03125 0 L 0.703125 -1.9375 L 1.1875 -1.9375 Z M 0.921875 -1.53125 L 0.671875 -0.765625 L 1.203125 -0.765625 L 0.953125 -1.53125 Z M 0.921875 -1.53125 "/></g></g></g><g fill="#000000" fill-opacity="1"><g transform="translate(28.183831, 31.082146)"><g><path d="M 1.15625 0 L 0.6875 0 L 0.03125 -1.9375 L 0.4375 -1.9375 L 0.90625 -0.5 L 0.953125 -0.5 L 1.40625 -1.9375 L 1.8125 -1.9375 Z M 1.15625 0 "/></g></g></g><g fill="#000000" fill-opacity="1"><g transform="translate(30.023285, 31.082146)"><g><path d="M 1.0625 0.03125 C 0.882812 0.03125 0.726562 -0.00390625 0.59375 -0.078125 C 0.457031 -0.148438 0.347656 -0.257812 0.265625 -0.40625 C 0.191406 -0.5625 0.15625 -0.75 0.15625 -0.96875 C 0.15625 -1.1875 0.191406 -1.367188 0.265625 -1.515625 C 0.347656 -1.671875 0.457031 -1.785156 0.59375 -1.859375 C 0.726562 -1.929688 0.882812 -1.96875 1.0625 -1.96875 C 1.238281 -1.96875 1.394531 -1.929688 1.53125 -1.859375 C 1.664062 -1.785156 1.769531 -1.671875 1.84375 -1.515625 C 1.914062 -1.367188 1.953125 -1.1875 1.953125 -0.96875 C 1.953125 -0.75 1.914062 -0.5625 1.84375 -0.40625 C 1.769531 -0.257812 1.664062 -0.148438 1.53125 -0.078125 C 1.394531 -0.00390625 1.238281 0.03125 1.0625 0.03125 Z M 1.0625 -0.3125 C 1.226562 -0.3125 1.351562 -0.363281 1.4375 -0.46875 C 1.519531 -0.570312 1.5625 -0.738281 1.5625 -0.96875 C 1.5625 -1.195312 1.519531 -1.363281 1.4375 -1.46875 C 1.351562 -1.582031 1.226562 -1.640625 1.0625 -1.640625 C 0.894531 -1.640625 0.765625 -1.582031 0.671875 -1.46875 C 0.585938 -1.363281 0.546875 -1.195312 0.546875 -0.96875 C 0.546875 -0.738281 0.585938 -0.570312 0.671875 -0.46875 C 0.765625 -0.363281 0.894531 -0.3125 1.0625 -0.3125 Z M 1.0625 -0.3125 "/></g></g></g><g fill="#000000" fill-opacity="1"><g transform="translate(32.134421, 31.082146)"><g><path d="M 1.03125 0.03125 C 0.757812 0.03125 0.554688 -0.03125 0.421875 -0.15625 C 0.296875 -0.289062 0.234375 -0.484375 0.234375 -0.734375 L 0.234375 -1.9375 L 0.609375 -1.9375 L 0.609375 -0.734375 C 0.609375 -0.585938 0.644531 -0.476562 0.71875 -0.40625 C 0.789062 -0.34375 0.894531 -0.3125 1.03125 -0.3125 C 1.300781 -0.3125 1.4375 -0.453125 1.4375 -0.734375 L 1.4375 -1.9375 L 1.8125 -1.9375 L 1.8125 -0.734375 C 1.8125 -0.484375 1.75 -0.289062 1.625 -0.15625 C 1.5 -0.03125 1.300781 0.03125 1.03125 0.03125 Z M 1.03125 0.03125 "/></g></g></g><g fill="#000000" fill-opacity="1"><g transform="translate(34.188567, 31.082146)"><g><path d="M 0.25 0 L 0.25 -1.9375 L 1.03125 -1.9375 C 1.226562 -1.9375 1.378906 -1.890625 1.484375 -1.796875 C 1.585938 -1.703125 1.640625 -1.578125 1.640625 -1.421875 C 1.640625 -1.304688 1.609375 -1.207031 1.546875 -1.125 C 1.484375 -1.050781 1.394531 -0.992188 1.28125 -0.953125 L 1.28125 -0.921875 C 1.34375 -0.898438 1.390625 -0.863281 1.421875 -0.8125 C 1.460938 -0.757812 1.5 -0.679688 1.53125 -0.578125 L 1.734375 0 L 1.34375 0 L 1.140625 -0.578125 C 1.128906 -0.640625 1.109375 -0.6875 1.078125 -0.71875 C 1.054688 -0.75 1.023438 -0.769531 0.984375 -0.78125 C 0.953125 -0.800781 0.90625 -0.8125 0.84375 -0.8125 L 0.640625 -0.8125 L 0.640625 0 Z M 0.984375 -1.109375 C 1.171875 -1.109375 1.265625 -1.195312 1.265625 -1.375 C 1.265625 -1.550781 1.171875 -1.640625 0.984375 -1.640625 L 0.640625 -1.640625 L 0.640625 -1.109375 Z M 0.984375 -1.109375 "/></g></g></g><g fill="#000000" fill-opacity="1"><g transform="translate(36.640297, 31.082146)"><g><path d="M 1 -1.9375 C 1.132812 -1.9375 1.25 -1.910156 1.34375 -1.859375 C 1.445312 -1.804688 1.523438 -1.734375 1.578125 -1.640625 C 1.628906 -1.554688 1.65625 -1.453125 1.65625 -1.328125 C 1.65625 -1.210938 1.628906 -1.109375 1.578125 -1.015625 C 1.523438 -0.921875 1.445312 -0.847656 1.34375 -0.796875 C 1.25 -0.742188 1.132812 -0.71875 1 -0.71875 L 0.640625 -0.71875 L 0.640625 0 L 0.25 0 L 0.25 -1.9375 Z M 0.953125 -1.03125 C 1.160156 -1.03125 1.265625 -1.128906 1.265625 -1.328125 C 1.265625 -1.535156 1.160156 -1.640625 0.953125 -1.640625 L 0.640625 -1.640625 L 0.640625 -1.03125 Z M 0.953125 -1.03125 "/></g></g></g><g fill="#000000" fill-opacity="1"><g transform="translate(38.410838, 31.082146)"><g><path d="M 1.5 -1.203125 L 1.5 -1.9375 L 1.890625 -1.9375 L 1.890625 0 L 1.5 0 L 1.5 -0.890625 L 0.640625 -0.890625 L 0.640625 0 L 0.25 0 L 0.25 -1.9375 L 0.640625 -1.9375 L 0.640625 -1.203125 Z M 1.5 -1.203125 "/></g></g></g><g fill="#000000" fill-opacity="1"><g transform="translate(40.548478, 31.082146)"><g><path d="M 0.640625 0 L 0.25 0 L 0.25 -1.9375 L 0.640625 -1.9375 Z M 0.640625 0 "/></g></g></g><g fill="#000000" fill-opacity="1"><g transform="translate(41.436399, 31.082146)"><g><path d="M 0.640625 -1.9375 L 0.640625 -0.328125 L 1.515625 -0.328125 L 1.515625 0 L 0.25 0 L 0.25 -1.9375 Z M 0.640625 -1.9375 "/></g></g></g><g fill="#000000" fill-opacity="1"><g transform="translate(43.005502, 31.082146)"><g><path d="M 0.640625 0 L 0.25 0 L 0.25 -1.9375 L 0.640625 -1.9375 Z M 0.640625 0 "/></g></g></g><g fill="#000000" fill-opacity="1"><g transform="translate(43.893423, 31.082146)"><g><path d="M 1 -1.9375 C 1.132812 -1.9375 1.25 -1.910156 1.34375 -1.859375 C 1.445312 -1.804688 1.523438 -1.734375 1.578125 -1.640625 C 1.628906 -1.554688 1.65625 -1.453125 1.65625 -1.328125 C 1.65625 -1.210938 1.628906 -1.109375 1.578125 -1.015625 C 1.523438 -0.921875 1.445312 -0.847656 1.34375 -0.796875 C 1.25 -0.742188 1.132812 -0.71875 1 -0.71875 L 0.640625 -0.71875 L 0.640625 0 L 0.25 0 L 0.25 -1.9375 Z M 0.953125 -1.03125 C 1.160156 -1.03125 1.265625 -1.128906 1.265625 -1.328125 C 1.265625 -1.535156 1.160156 -1.640625 0.953125 -1.640625 L 0.640625 -1.640625 L 0.640625 -1.03125 Z M 0.953125 -1.03125 "/></g></g></g><g fill="#ffbd59" fill-opacity="1"><g transform="translate(64.425877, 16.789296)"><g><path d="M 0.390625 -5.4375 C 0.390625 -5.550781 0.4375 -5.609375 0.53125 -5.609375 L 4.625 -5.609375 C 4.707031 -5.609375 4.75 -5.554688 4.75 -5.453125 L 4.75 -4.578125 C 4.75 -4.441406 4.679688 -4.375 4.546875 -4.375 L 2.28125 -4.375 C 2.164062 -4.375 2.109375 -4.328125 2.109375 -4.234375 L 2.109375 -3.578125 C 2.109375 -3.535156 2.117188 -3.5 2.140625 -3.46875 C 2.171875 -3.4375 2.207031 -3.421875 2.25 -3.421875 L 3.609375 -3.421875 C 3.710938 -3.421875 3.765625 -3.375 3.765625 -3.28125 L 3.765625 -2.34375 C 3.765625 -2.25 3.71875 -2.203125 3.625 -2.203125 L 2.234375 -2.203125 C 2.191406 -2.203125 2.160156 -2.191406 2.140625 -2.171875 C 2.117188 -2.148438 2.109375 -2.128906 2.109375 -2.109375 L 2.109375 -1.34375 C 2.109375 -1.300781 2.113281 -1.269531 2.125 -1.25 C 2.132812 -1.238281 2.160156 -1.234375 2.203125 -1.234375 L 4.65625 -1.234375 C 4.769531 -1.234375 4.828125 -1.1875 4.828125 -1.09375 L 4.828125 -0.171875 C 4.828125 -0.117188 4.8125 -0.078125 4.78125 -0.046875 C 4.75 -0.015625 4.703125 0 4.640625 0 L 0.59375 0 C 0.519531 0 0.46875 -0.015625 0.4375 -0.046875 C 0.40625 -0.078125 0.390625 -0.125 0.390625 -0.1875 Z M 0.390625 -5.4375 "/></g></g></g><g fill="#ffbd59" fill-opacity="1"><g transform="translate(71.639304, 16.789296)"><g><path d="M 5.4375 -0.390625 C 5.507812 -0.285156 5.546875 -0.195312 5.546875 -0.125 C 5.546875 -0.0390625 5.472656 0 5.328125 0 L 3.96875 0 C 3.8125 0 3.707031 -0.0507812 3.65625 -0.15625 L 2.828125 -1.578125 C 2.773438 -1.648438 2.738281 -1.6875 2.71875 -1.6875 C 2.6875 -1.6875 2.648438 -1.648438 2.609375 -1.578125 L 1.796875 -0.15625 C 1.734375 -0.0507812 1.625 0 1.46875 0 L 0.390625 0 C 0.253906 0 0.1875 -0.0390625 0.1875 -0.125 C 0.1875 -0.175781 0.222656 -0.265625 0.296875 -0.390625 L 1.78125 -2.6875 C 1.820312 -2.738281 1.84375 -2.785156 1.84375 -2.828125 C 1.84375 -2.859375 1.820312 -2.90625 1.78125 -2.96875 L 0.25 -5.34375 C 0.226562 -5.375 0.21875 -5.414062 0.21875 -5.46875 C 0.21875 -5.5625 0.269531 -5.609375 0.375 -5.609375 L 1.8125 -5.609375 C 1.882812 -5.609375 1.941406 -5.59375 1.984375 -5.5625 C 2.035156 -5.539062 2.078125 -5.503906 2.109375 -5.453125 L 2.796875 -4.234375 C 2.816406 -4.191406 2.84375 -4.171875 2.875 -4.171875 C 2.90625 -4.171875 2.9375 -4.191406 2.96875 -4.234375 L 3.65625 -5.453125 C 3.6875 -5.503906 3.722656 -5.539062 3.765625 -5.5625 C 3.804688 -5.59375 3.867188 -5.609375 3.953125 -5.609375 L 5.125 -5.609375 C 5.21875 -5.609375 5.265625 -5.570312 5.265625 -5.5 C 5.265625 -5.457031 5.25 -5.410156 5.21875 -5.359375 L 3.78125 -3.171875 C 3.757812 -3.117188 3.75 -3.078125 3.75 -3.046875 C 3.75 -3.015625 3.765625 -2.960938 3.796875 -2.890625 Z M 5.4375 -0.390625 "/></g></g></g><g fill="#ffbd59" fill-opacity="1"><g transform="translate(79.495435, 16.789296)"><g><path d="M 0.21875 -5.4375 C 0.21875 -5.488281 0.234375 -5.53125 0.265625 -5.5625 C 0.296875 -5.59375 0.34375 -5.609375 0.40625 -5.609375 L 4.921875 -5.609375 C 4.984375 -5.609375 5.03125 -5.59375 5.0625 -5.5625 C 5.09375 -5.53125 5.109375 -5.488281 5.109375 -5.4375 L 5.109375 -4.53125 C 5.109375 -4.4375 5.054688 -4.390625 4.953125 -4.390625 L 3.609375 -4.390625 C 3.546875 -4.390625 3.515625 -4.363281 3.515625 -4.3125 L 3.515625 -0.171875 C 3.515625 -0.109375 3.5 -0.0625 3.46875 -0.03125 C 3.445312 -0.0078125 3.414062 0 3.375 0 L 1.9375 0 C 1.84375 0 1.796875 -0.0507812 1.796875 -0.15625 L 1.796875 -4.28125 C 1.796875 -4.351562 1.769531 -4.390625 1.71875 -4.390625 L 0.390625 -4.390625 C 0.273438 -4.390625 0.21875 -4.4375 0.21875 -4.53125 Z M 0.21875 -5.4375 "/></g></g></g><g fill="#ffbd59" fill-opacity="1"><g transform="translate(86.958379, 16.789296)"><g><path d="M 5.296875 -0.234375 C 5.304688 -0.222656 5.3125 -0.195312 5.3125 -0.15625 C 5.3125 -0.113281 5.296875 -0.078125 5.265625 -0.046875 C 5.242188 -0.015625 5.210938 0 5.171875 0 L 3.703125 0 C 3.597656 0 3.53125 -0.0507812 3.5 -0.15625 L 2.78125 -2.109375 C 2.769531 -2.148438 2.742188 -2.179688 2.703125 -2.203125 C 2.671875 -2.222656 2.617188 -2.234375 2.546875 -2.234375 L 2.203125 -2.234375 C 2.171875 -2.234375 2.144531 -2.222656 2.125 -2.203125 C 2.113281 -2.179688 2.109375 -2.160156 2.109375 -2.140625 L 2.109375 -0.21875 C 2.109375 -0.132812 2.085938 -0.078125 2.046875 -0.046875 C 2.003906 -0.015625 1.941406 0 1.859375 0 L 0.59375 0 C 0.507812 0 0.453125 -0.015625 0.421875 -0.046875 C 0.398438 -0.078125 0.390625 -0.125 0.390625 -0.1875 L 0.390625 -5.4375 C 0.390625 -5.550781 0.4375 -5.609375 0.53125 -5.609375 L 3.0625 -5.609375 C 3.789062 -5.609375 4.359375 -5.46875 4.765625 -5.1875 C 5.171875 -4.90625 5.375 -4.515625 5.375 -4.015625 C 5.375 -3.660156 5.28125 -3.347656 5.09375 -3.078125 C 4.90625 -2.804688 4.664062 -2.613281 4.375 -2.5 C 4.34375 -2.488281 4.328125 -2.460938 4.328125 -2.421875 C 4.328125 -2.410156 4.332031 -2.390625 4.34375 -2.359375 Z M 3 -3.359375 C 3.1875 -3.359375 3.332031 -3.40625 3.4375 -3.5 C 3.539062 -3.601562 3.59375 -3.738281 3.59375 -3.90625 C 3.59375 -4.09375 3.53125 -4.234375 3.40625 -4.328125 C 3.28125 -4.429688 3.128906 -4.484375 2.953125 -4.484375 L 2.28125 -4.484375 C 2.21875 -4.484375 2.171875 -4.472656 2.140625 -4.453125 C 2.117188 -4.429688 2.109375 -4.394531 2.109375 -4.34375 L 2.109375 -3.515625 C 2.109375 -3.460938 2.113281 -3.421875 2.125 -3.390625 C 2.144531 -3.367188 2.179688 -3.359375 2.234375 -3.359375 Z M 3 -3.359375 "/></g></g></g><g fill="#ffbd59" fill-opacity="1"><g transform="translate(94.685964, 16.789296)"><g><path d="M 0.390625 -5.4375 C 0.390625 -5.550781 0.4375 -5.609375 0.53125 -5.609375 L 4.625 -5.609375 C 4.707031 -5.609375 4.75 -5.554688 4.75 -5.453125 L 4.75 -4.578125 C 4.75 -4.441406 4.679688 -4.375 4.546875 -4.375 L 2.28125 -4.375 C 2.164062 -4.375 2.109375 -4.328125 2.109375 -4.234375 L 2.109375 -3.578125 C 2.109375 -3.535156 2.117188 -3.5 2.140625 -3.46875 C 2.171875 -3.4375 2.207031 -3.421875 2.25 -3.421875 L 3.609375 -3.421875 C 3.710938 -3.421875 3.765625 -3.375 3.765625 -3.28125 L 3.765625 -2.34375 C 3.765625 -2.25 3.71875 -2.203125 3.625 -2.203125 L 2.234375 -2.203125 C 2.191406 -2.203125 2.160156 -2.191406 2.140625 -2.171875 C 2.117188 -2.148438 2.109375 -2.128906 2.109375 -2.109375 L 2.109375 -1.34375 C 2.109375 -1.300781 2.113281 -1.269531 2.125 -1.25 C 2.132812 -1.238281 2.160156 -1.234375 2.203125 -1.234375 L 4.65625 -1.234375 C 4.769531 -1.234375 4.828125 -1.1875 4.828125 -1.09375 L 4.828125 -0.171875 C 4.828125 -0.117188 4.8125 -0.078125 4.78125 -0.046875 C 4.75 -0.015625 4.703125 0 4.640625 0 L 0.59375 0 C 0.519531 0 0.46875 -0.015625 0.4375 -0.046875 C 0.40625 -0.078125 0.390625 -0.125 0.390625 -0.1875 Z M 0.390625 -5.4375 "/></g></g></g><g fill="#ffbd59" fill-opacity="1"><g transform="translate(101.899391, 16.789296)"><g><path d="M 0.59375 0 C 0.53125 0 0.476562 -0.015625 0.4375 -0.046875 C 0.40625 -0.0859375 0.390625 -0.144531 0.390625 -0.21875 L 0.390625 -5.4375 C 0.390625 -5.5 0.398438 -5.539062 0.421875 -5.5625 C 0.453125 -5.59375 0.492188 -5.609375 0.546875 -5.609375 L 2.671875 -5.609375 C 2.734375 -5.609375 2.773438 -5.597656 2.796875 -5.578125 C 2.828125 -5.566406 2.851562 -5.53125 2.875 -5.46875 L 3.671875 -3.078125 C 3.679688 -3.035156 3.695312 -3.015625 3.71875 -3.015625 C 3.738281 -3.015625 3.753906 -3.035156 3.765625 -3.078125 L 4.46875 -5.390625 C 4.507812 -5.535156 4.578125 -5.609375 4.671875 -5.609375 L 6.859375 -5.609375 C 6.953125 -5.609375 7 -5.554688 7 -5.453125 L 7 -0.21875 C 7 -0.132812 6.976562 -0.078125 6.9375 -0.046875 C 6.894531 -0.015625 6.832031 0 6.75 0 L 5.46875 0 C 5.394531 0 5.34375 -0.015625 5.3125 -0.046875 C 5.289062 -0.078125 5.28125 -0.125 5.28125 -0.1875 L 5.28125 -3.578125 C 5.28125 -3.617188 5.269531 -3.640625 5.25 -3.640625 C 5.21875 -3.640625 5.195312 -3.617188 5.1875 -3.578125 L 4.09375 -0.140625 C 4.0625 -0.046875 4.003906 0 3.921875 0 L 3.125 0 C 3.03125 0 2.96875 -0.046875 2.9375 -0.140625 L 1.859375 -3.515625 C 1.835938 -3.566406 1.816406 -3.59375 1.796875 -3.59375 C 1.773438 -3.59375 1.765625 -3.566406 1.765625 -3.515625 L 1.765625 -0.171875 C 1.765625 -0.0976562 1.753906 -0.0507812 1.734375 -0.03125 C 1.710938 -0.0078125 1.664062 0 1.59375 0 Z M 0.59375 0 "/></g></g></g><g fill="#ffbd59" fill-opacity="1"><g transform="translate(111.426554, 16.789296)"><g><path d="M 0.390625 -5.4375 C 0.390625 -5.550781 0.4375 -5.609375 0.53125 -5.609375 L 4.625 -5.609375 C 4.707031 -5.609375 4.75 -5.554688 4.75 -5.453125 L 4.75 -4.578125 C 4.75 -4.441406 4.679688 -4.375 4.546875 -4.375 L 2.28125 -4.375 C 2.164062 -4.375 2.109375 -4.328125 2.109375 -4.234375 L 2.109375 -3.578125 C 2.109375 -3.535156 2.117188 -3.5 2.140625 -3.46875 C 2.171875 -3.4375 2.207031 -3.421875 2.25 -3.421875 L 3.609375 -3.421875 C 3.710938 -3.421875 3.765625 -3.375 3.765625 -3.28125 L 3.765625 -2.34375 C 3.765625 -2.25 3.71875 -2.203125 3.625 -2.203125 L 2.234375 -2.203125 C 2.191406 -2.203125 2.160156 -2.191406 2.140625 -2.171875 C 2.117188 -2.148438 2.109375 -2.128906 2.109375 -2.109375 L 2.109375 -1.34375 C 2.109375 -1.300781 2.113281 -1.269531 2.125 -1.25 C 2.132812 -1.238281 2.160156 -1.234375 2.203125 -1.234375 L 4.65625 -1.234375 C 4.769531 -1.234375 4.828125 -1.1875 4.828125 -1.09375 L 4.828125 -0.171875 C 4.828125 -0.117188 4.8125 -0.078125 4.78125 -0.046875 C 4.75 -0.015625 4.703125 0 4.640625 0 L 0.59375 0 C 0.519531 0 0.46875 -0.015625 0.4375 -0.046875 C 0.40625 -0.078125 0.390625 -0.125 0.390625 -0.1875 Z M 0.390625 -5.4375 "/></g></g></g><g fill="#ffbd59" fill-opacity="1"><g transform="translate(64.87676, 23.719427)"><g><path d="M 3.125 -3.421875 C 3.019531 -3.535156 2.910156 -3.617188 2.796875 -3.671875 C 2.679688 -3.734375 2.515625 -3.765625 2.296875 -3.765625 C 2.078125 -3.765625 1.910156 -3.734375 1.796875 -3.671875 C 1.691406 -3.609375 1.640625 -3.535156 1.640625 -3.453125 C 1.640625 -3.296875 1.773438 -3.1875 2.046875 -3.125 L 3.09375 -2.859375 C 3.476562 -2.753906 3.765625 -2.582031 3.953125 -2.34375 C 4.148438 -2.101562 4.25 -1.816406 4.25 -1.484375 C 4.25 -1.171875 4.164062 -0.894531 4 -0.65625 C 3.84375 -0.425781 3.609375 -0.25 3.296875 -0.125 C 2.992188 0 2.640625 0.0625 2.234375 0.0625 C 1.773438 0.0625 1.351562 -0.0078125 0.96875 -0.15625 C 0.582031 -0.3125 0.316406 -0.515625 0.171875 -0.765625 C 0.148438 -0.804688 0.140625 -0.835938 0.140625 -0.859375 C 0.140625 -0.898438 0.164062 -0.941406 0.21875 -0.984375 L 0.859375 -1.421875 C 0.910156 -1.453125 0.953125 -1.46875 0.984375 -1.46875 C 1.035156 -1.46875 1.078125 -1.445312 1.109375 -1.40625 C 1.242188 -1.226562 1.382812 -1.097656 1.53125 -1.015625 C 1.6875 -0.941406 1.882812 -0.90625 2.125 -0.90625 C 2.363281 -0.90625 2.550781 -0.9375 2.6875 -1 C 2.820312 -1.070312 2.890625 -1.164062 2.890625 -1.28125 C 2.890625 -1.351562 2.851562 -1.421875 2.78125 -1.484375 C 2.71875 -1.546875 2.625 -1.585938 2.5 -1.609375 L 1.53125 -1.84375 C 1.15625 -1.9375 0.851562 -2.109375 0.625 -2.359375 C 0.40625 -2.617188 0.296875 -2.914062 0.296875 -3.25 C 0.296875 -3.519531 0.375 -3.769531 0.53125 -4 C 0.695312 -4.226562 0.925781 -4.410156 1.21875 -4.546875 C 1.507812 -4.679688 1.847656 -4.75 2.234375 -4.75 C 2.617188 -4.75 2.972656 -4.6875 3.296875 -4.5625 C 3.617188 -4.4375 3.851562 -4.269531 4 -4.0625 C 4.03125 -4.03125 4.046875 -3.992188 4.046875 -3.953125 C 4.046875 -3.921875 4.03125 -3.894531 4 -3.875 L 3.3125 -3.375 C 3.289062 -3.363281 3.265625 -3.359375 3.234375 -3.359375 C 3.203125 -3.359375 3.164062 -3.378906 3.125 -3.421875 Z M 3.125 -3.421875 "/></g></g></g><g fill="#ffbd59" fill-opacity="1"><g transform="translate(71.091016, 23.719427)"><g><path d="M 1.640625 -4.6875 C 1.722656 -4.6875 1.765625 -4.640625 1.765625 -4.546875 L 1.765625 -0.1875 C 1.765625 -0.113281 1.742188 -0.0625 1.703125 -0.03125 C 1.671875 -0.0078125 1.617188 0 1.546875 0 L 0.5 0 C 0.4375 0 0.390625 -0.0078125 0.359375 -0.03125 C 0.335938 -0.0625 0.328125 -0.101562 0.328125 -0.15625 L 0.328125 -4.53125 C 0.328125 -4.582031 0.335938 -4.617188 0.359375 -4.640625 C 0.378906 -4.671875 0.410156 -4.6875 0.453125 -4.6875 Z M 1.640625 -4.6875 "/></g></g></g><g fill="#ffbd59" fill-opacity="1"><g transform="translate(74.968606, 23.719427)"><g><path d="M 0.171875 -4.53125 C 0.171875 -4.582031 0.1875 -4.617188 0.21875 -4.640625 C 0.25 -4.671875 0.285156 -4.6875 0.328125 -4.6875 L 4.109375 -4.6875 C 4.160156 -4.6875 4.195312 -4.671875 4.21875 -4.640625 C 4.25 -4.617188 4.265625 -4.582031 4.265625 -4.53125 L 4.265625 -3.78125 C 4.265625 -3.707031 4.21875 -3.671875 4.125 -3.671875 L 3.015625 -3.671875 C 2.960938 -3.671875 2.9375 -3.648438 2.9375 -3.609375 L 2.9375 -0.140625 C 2.9375 -0.0859375 2.925781 -0.0507812 2.90625 -0.03125 C 2.882812 -0.0078125 2.851562 0 2.8125 0 L 1.609375 0 C 1.535156 0 1.5 -0.0390625 1.5 -0.125 L 1.5 -3.578125 C 1.5 -3.640625 1.476562 -3.671875 1.4375 -3.671875 L 0.328125 -3.671875 C 0.222656 -3.671875 0.171875 -3.707031 0.171875 -3.78125 Z M 0.171875 -4.53125 "/></g></g></g><g fill="#ffbd59" fill-opacity="1"><g transform="translate(81.201805, 23.719427)"><g><path d="M 4.3125 -1.84375 C 4.3125 -1.15625 4.132812 -0.664062 3.78125 -0.375 C 3.4375 -0.0820312 2.941406 0.0625 2.296875 0.0625 C 1.566406 0.0625 1.046875 -0.101562 0.734375 -0.4375 C 0.429688 -0.78125 0.28125 -1.289062 0.28125 -1.96875 L 0.28125 -4.53125 C 0.28125 -4.582031 0.289062 -4.617188 0.3125 -4.640625 C 0.332031 -4.671875 0.359375 -4.6875 0.390625 -4.6875 L 1.59375 -4.6875 C 1.664062 -4.6875 1.703125 -4.640625 1.703125 -4.546875 L 1.703125 -1.828125 C 1.703125 -1.515625 1.765625 -1.285156 1.890625 -1.140625 C 2.015625 -1.003906 2.1875 -0.9375 2.40625 -0.9375 C 2.625 -0.9375 2.800781 -1.003906 2.9375 -1.140625 C 3.070312 -1.285156 3.140625 -1.519531 3.140625 -1.84375 L 3.140625 -4.53125 C 3.140625 -4.632812 3.175781 -4.6875 3.25 -4.6875 L 4.203125 -4.6875 C 4.273438 -4.6875 4.3125 -4.640625 4.3125 -4.546875 Z M 4.3125 -1.84375 "/></g></g></g><g fill="#ffbd59" fill-opacity="1"><g transform="translate(87.586576, 23.719427)"><g><path d="M 0.265625 0 C 0.234375 0 0.207031 -0.0078125 0.1875 -0.03125 C 0.164062 -0.0507812 0.15625 -0.0820312 0.15625 -0.125 C 0.15625 -0.15625 0.160156 -0.191406 0.171875 -0.234375 L 1.703125 -4.53125 C 1.722656 -4.59375 1.742188 -4.632812 1.765625 -4.65625 C 1.796875 -4.675781 1.835938 -4.6875 1.890625 -4.6875 L 3.140625 -4.6875 C 3.191406 -4.6875 3.234375 -4.671875 3.265625 -4.640625 C 3.304688 -4.609375 3.335938 -4.566406 3.359375 -4.515625 L 4.875 -0.21875 C 4.882812 -0.1875 4.890625 -0.160156 4.890625 -0.140625 C 4.890625 -0.0976562 4.878906 -0.0625 4.859375 -0.03125 C 4.847656 -0.0078125 4.828125 0 4.796875 0 L 3.546875 0 C 3.484375 0 3.441406 -0.0351562 3.421875 -0.109375 L 3.171875 -0.828125 C 3.160156 -0.859375 3.148438 -0.878906 3.140625 -0.890625 C 3.128906 -0.898438 3.109375 -0.90625 3.078125 -0.90625 L 1.734375 -0.90625 C 1.679688 -0.90625 1.648438 -0.882812 1.640625 -0.84375 L 1.375 -0.09375 C 1.351562 -0.03125 1.304688 0 1.234375 0 Z M 2.765625 -1.984375 C 2.804688 -1.984375 2.828125 -2.003906 2.828125 -2.046875 C 2.828125 -2.054688 2.820312 -2.078125 2.8125 -2.109375 L 2.4375 -3.1875 C 2.425781 -3.207031 2.410156 -3.21875 2.390625 -3.21875 C 2.378906 -3.21875 2.367188 -3.207031 2.359375 -3.1875 L 1.96875 -2.109375 C 1.96875 -2.097656 1.96875 -2.078125 1.96875 -2.046875 C 1.96875 -2.003906 1.988281 -1.984375 2.03125 -1.984375 Z M 2.765625 -1.984375 "/></g></g></g><g fill="#ffbd59" fill-opacity="1"><g transform="translate(94.419733, 23.719427)"><g><path d="M 0.171875 -4.53125 C 0.171875 -4.582031 0.1875 -4.617188 0.21875 -4.640625 C 0.25 -4.671875 0.285156 -4.6875 0.328125 -4.6875 L 4.109375 -4.6875 C 4.160156 -4.6875 4.195312 -4.671875 4.21875 -4.640625 C 4.25 -4.617188 4.265625 -4.582031 4.265625 -4.53125 L 4.265625 -3.78125 C 4.265625 -3.707031 4.21875 -3.671875 4.125 -3.671875 L 3.015625 -3.671875 C 2.960938 -3.671875 2.9375 -3.648438 2.9375 -3.609375 L 2.9375 -0.140625 C 2.9375 -0.0859375 2.925781 -0.0507812 2.90625 -0.03125 C 2.882812 -0.0078125 2.851562 0 2.8125 0 L 1.609375 0 C 1.535156 0 1.5 -0.0390625 1.5 -0.125 L 1.5 -3.578125 C 1.5 -3.640625 1.476562 -3.671875 1.4375 -3.671875 L 0.328125 -3.671875 C 0.222656 -3.671875 0.171875 -3.707031 0.171875 -3.78125 Z M 0.171875 -4.53125 "/></g></g></g><g fill="#ffbd59" fill-opacity="1"><g transform="translate(100.652933, 23.719427)"><g><path d="M 1.640625 -4.6875 C 1.722656 -4.6875 1.765625 -4.640625 1.765625 -4.546875 L 1.765625 -0.1875 C 1.765625 -0.113281 1.742188 -0.0625 1.703125 -0.03125 C 1.671875 -0.0078125 1.617188 0 1.546875 0 L 0.5 0 C 0.4375 0 0.390625 -0.0078125 0.359375 -0.03125 C 0.335938 -0.0625 0.328125 -0.101562 0.328125 -0.15625 L 0.328125 -4.53125 C 0.328125 -4.582031 0.335938 -4.617188 0.359375 -4.640625 C 0.378906 -4.671875 0.410156 -4.6875 0.453125 -4.6875 Z M 1.640625 -4.6875 "/></g></g></g><g fill="#ffbd59" fill-opacity="1"><g transform="translate(104.530525, 23.719427)"><g><path d="M 2.46875 0.0625 C 2.007812 0.0625 1.609375 -0.0351562 1.265625 -0.234375 C 0.921875 -0.429688 0.65625 -0.707031 0.46875 -1.0625 C 0.289062 -1.425781 0.203125 -1.847656 0.203125 -2.328125 C 0.203125 -2.816406 0.289062 -3.238281 0.46875 -3.59375 C 0.65625 -3.957031 0.921875 -4.238281 1.265625 -4.4375 C 1.609375 -4.644531 2.007812 -4.75 2.46875 -4.75 C 2.914062 -4.75 3.3125 -4.644531 3.65625 -4.4375 C 4 -4.238281 4.265625 -3.957031 4.453125 -3.59375 C 4.640625 -3.238281 4.734375 -2.816406 4.734375 -2.328125 C 4.734375 -1.847656 4.640625 -1.425781 4.453125 -1.0625 C 4.265625 -0.707031 4 -0.429688 3.65625 -0.234375 C 3.320312 -0.0351562 2.925781 0.0625 2.46875 0.0625 Z M 2.46875 -0.921875 C 2.65625 -0.921875 2.800781 -0.960938 2.90625 -1.046875 C 3.019531 -1.140625 3.097656 -1.285156 3.140625 -1.484375 C 3.191406 -1.691406 3.21875 -1.96875 3.21875 -2.3125 C 3.21875 -2.832031 3.160156 -3.207031 3.046875 -3.4375 C 2.929688 -3.664062 2.738281 -3.78125 2.46875 -3.78125 C 2.195312 -3.78125 2 -3.664062 1.875 -3.4375 C 1.757812 -3.207031 1.703125 -2.832031 1.703125 -2.3125 C 1.703125 -1.96875 1.722656 -1.691406 1.765625 -1.484375 C 1.816406 -1.285156 1.898438 -1.140625 2.015625 -1.046875 C 2.128906 -0.960938 2.28125 -0.921875 2.46875 -0.921875 Z M 2.46875 -0.921875 "/></g></g></g><g fill="#ffbd59" fill-opacity="1"><g transform="translate(111.243684, 23.719427)"><g><path d="M 4.375 -4.6875 C 4.4375 -4.6875 4.46875 -4.648438 4.46875 -4.578125 L 4.46875 -0.109375 C 4.46875 -0.078125 4.453125 -0.0507812 4.421875 -0.03125 C 4.398438 -0.0078125 4.367188 0 4.328125 0 L 3.46875 0 C 3.425781 0 3.394531 -0.00390625 3.375 -0.015625 C 3.351562 -0.0234375 3.328125 -0.0507812 3.296875 -0.09375 L 1.5625 -2.453125 C 1.539062 -2.472656 1.523438 -2.476562 1.515625 -2.46875 C 1.503906 -2.46875 1.5 -2.457031 1.5 -2.4375 L 1.5 -0.140625 C 1.5 -0.0859375 1.488281 -0.0507812 1.46875 -0.03125 C 1.445312 -0.0078125 1.40625 0 1.34375 0 L 0.484375 0 C 0.378906 0 0.328125 -0.0390625 0.328125 -0.125 L 0.328125 -4.53125 C 0.328125 -4.632812 0.375 -4.6875 0.46875 -4.6875 L 1.5 -4.6875 C 1.550781 -4.6875 1.585938 -4.675781 1.609375 -4.65625 C 1.640625 -4.644531 1.671875 -4.617188 1.703125 -4.578125 L 3.21875 -2.46875 C 3.25 -2.425781 3.273438 -2.40625 3.296875 -2.40625 C 3.316406 -2.40625 3.328125 -2.429688 3.328125 -2.484375 L 3.328125 -4.546875 C 3.328125 -4.640625 3.375 -4.6875 3.46875 -4.6875 Z M 4.375 -4.6875 "/></g></g></g><g clip-path="url(#caf1b0e62f)"><path fill="#ffbd59" d="M 64.433594 31.179688 L 116.511719 31.179688 L 116.511719 37.613281 L 64.433594 37.613281 Z M 64.433594 31.179688 " fill-opacity="1" fill-rule="nonzero"/></g><g fill="#000000" fill-opacity="1"><g transform="translate(68.481053, 35.799147)"><g><path d="M 2.296875 -3 L 2.296875 -2.5 L 0.984375 -2.5 L 0.984375 -1.703125 L 2.171875 -1.703125 L 2.171875 -1.21875 L 0.984375 -1.21875 L 0.984375 0 L 0.390625 0 L 0.390625 -3 Z M 2.296875 -3 "/></g></g></g><g fill="#000000" fill-opacity="1"><g transform="translate(71.870392, 35.799147)"><g><path d="M 2.875 0 L 2.25 0 L 2.03125 -0.6875 L 0.875 -0.6875 L 0.65625 0 L 0.046875 0 L 1.078125 -3 L 1.84375 -3 Z M 1.421875 -2.375 L 1.046875 -1.1875 L 1.859375 -1.1875 L 1.484375 -2.375 Z M 1.421875 -2.375 "/></g></g></g><g fill="#000000" fill-opacity="1"><g transform="translate(75.75797, 35.799147)"><g><path d="M 1.78125 0 L 1.0625 0 L 0.046875 -3 L 0.6875 -3 L 1.40625 -0.765625 L 1.46875 -0.765625 L 2.1875 -3 L 2.796875 -3 Z M 1.78125 0 "/></g></g></g><g fill="#000000" fill-opacity="1"><g transform="translate(79.569684, 35.799147)"><g><path d="M 1.640625 0.046875 C 1.359375 0.046875 1.113281 -0.0078125 0.90625 -0.125 C 0.695312 -0.238281 0.53125 -0.410156 0.40625 -0.640625 C 0.289062 -0.867188 0.234375 -1.15625 0.234375 -1.5 C 0.234375 -1.84375 0.289062 -2.128906 0.40625 -2.359375 C 0.53125 -2.585938 0.695312 -2.757812 0.90625 -2.875 C 1.113281 -2.988281 1.359375 -3.046875 1.640625 -3.046875 C 1.910156 -3.046875 2.148438 -2.988281 2.359375 -2.875 C 2.566406 -2.757812 2.726562 -2.585938 2.84375 -2.359375 C 2.96875 -2.128906 3.03125 -1.84375 3.03125 -1.5 C 3.03125 -1.15625 2.96875 -0.867188 2.84375 -0.640625 C 2.726562 -0.410156 2.566406 -0.238281 2.359375 -0.125 C 2.148438 -0.0078125 1.910156 0.046875 1.640625 0.046875 Z M 1.640625 -0.46875 C 1.890625 -0.46875 2.082031 -0.550781 2.21875 -0.71875 C 2.351562 -0.882812 2.421875 -1.144531 2.421875 -1.5 C 2.421875 -1.851562 2.351562 -2.113281 2.21875 -2.28125 C 2.082031 -2.445312 1.890625 -2.53125 1.640625 -2.53125 C 1.378906 -2.53125 1.179688 -2.445312 1.046875 -2.28125 C 0.910156 -2.113281 0.84375 -1.851562 0.84375 -1.5 C 0.84375 -1.144531 0.910156 -0.882812 1.046875 -0.71875 C 1.179688 -0.550781 1.378906 -0.46875 1.640625 -0.46875 Z M 1.640625 -0.46875 "/></g></g></g><g fill="#000000" fill-opacity="1"><g transform="translate(83.801723, 35.799147)"><g><path d="M 1.59375 0.046875 C 1.175781 0.046875 0.867188 -0.0507812 0.671875 -0.25 C 0.472656 -0.445312 0.375 -0.738281 0.375 -1.125 L 0.375 -3 L 0.953125 -3 L 0.953125 -1.125 C 0.953125 -0.90625 1.003906 -0.738281 1.109375 -0.625 C 1.210938 -0.519531 1.375 -0.46875 1.59375 -0.46875 C 2.019531 -0.46875 2.234375 -0.6875 2.234375 -1.125 L 2.234375 -3 L 2.8125 -3 L 2.8125 -1.125 C 2.8125 -0.738281 2.707031 -0.445312 2.5 -0.25 C 2.300781 -0.0507812 2 0.046875 1.59375 0.046875 Z M 1.59375 0.046875 "/></g></g></g><g fill="#000000" fill-opacity="1"><g transform="translate(87.945597, 35.799147)"><g><path d="M 0.390625 0 L 0.390625 -3 L 1.59375 -3 C 1.90625 -3 2.140625 -2.925781 2.296875 -2.78125 C 2.453125 -2.644531 2.53125 -2.445312 2.53125 -2.1875 C 2.53125 -2.007812 2.484375 -1.863281 2.390625 -1.75 C 2.296875 -1.632812 2.160156 -1.546875 1.984375 -1.484375 L 1.984375 -1.4375 C 2.078125 -1.394531 2.148438 -1.332031 2.203125 -1.25 C 2.265625 -1.175781 2.320312 -1.054688 2.375 -0.890625 L 2.671875 0 L 2.0625 0 L 1.765625 -0.890625 C 1.742188 -0.984375 1.710938 -1.054688 1.671875 -1.109375 C 1.628906 -1.160156 1.578125 -1.195312 1.515625 -1.21875 C 1.460938 -1.238281 1.390625 -1.25 1.296875 -1.25 L 0.984375 -1.25 L 0.984375 0 Z M 1.515625 -1.71875 C 1.804688 -1.71875 1.953125 -1.851562 1.953125 -2.125 C 1.953125 -2.394531 1.804688 -2.53125 1.515625 -2.53125 L 0.984375 -2.53125 L 0.984375 -1.71875 Z M 1.515625 -1.71875 "/></g></g></g><g fill="#000000" fill-opacity="1"><g transform="translate(91.714254, 35.799147)"><g/></g></g><g fill="#000000" fill-opacity="1"><g transform="translate(93.670387, 35.799147)"><g><path d="M 1.546875 -3 C 1.765625 -3 1.945312 -2.957031 2.09375 -2.875 C 2.25 -2.800781 2.363281 -2.691406 2.4375 -2.546875 C 2.519531 -2.410156 2.5625 -2.25 2.5625 -2.0625 C 2.5625 -1.875 2.519531 -1.707031 2.4375 -1.5625 C 2.363281 -1.425781 2.25 -1.316406 2.09375 -1.234375 C 1.945312 -1.160156 1.765625 -1.125 1.546875 -1.125 L 0.984375 -1.125 L 0.984375 0 L 0.390625 0 L 0.390625 -3 Z M 1.46875 -1.59375 C 1.800781 -1.59375 1.96875 -1.75 1.96875 -2.0625 C 1.96875 -2.375 1.800781 -2.53125 1.46875 -2.53125 L 0.984375 -2.53125 L 0.984375 -1.59375 Z M 1.46875 -1.59375 "/></g></g></g><g fill="#000000" fill-opacity="1"><g transform="translate(97.375483, 35.799147)"><g><path d="M 2.328125 -1.875 L 2.328125 -3 L 2.921875 -3 L 2.921875 0 L 2.328125 0 L 2.328125 -1.359375 L 0.984375 -1.359375 L 0.984375 0 L 0.390625 0 L 0.390625 -3 L 0.984375 -3 L 0.984375 -1.875 Z M 2.328125 -1.875 "/></g></g></g><g fill="#000000" fill-opacity="1"><g transform="translate(101.64853, 35.799147)"><g><path d="M 0.984375 0 L 0.390625 0 L 0.390625 -3 L 0.984375 -3 Z M 0.984375 0 "/></g></g></g><g fill="#000000" fill-opacity="1"><g transform="translate(103.988082, 35.799147)"><g><path d="M 0.984375 -3 L 0.984375 -0.5 L 2.328125 -0.5 L 2.328125 0 L 0.390625 0 L 0.390625 -3 Z M 0.984375 -3 "/></g></g></g><g fill="#000000" fill-opacity="1"><g transform="translate(107.381522, 35.799147)"><g><path d="M 0.984375 0 L 0.390625 0 L 0.390625 -3 L 0.984375 -3 Z M 0.984375 0 "/></g></g></g><g fill="#000000" fill-opacity="1"><g transform="translate(109.721073, 35.799147)"><g><path d="M 1.546875 -3 C 1.765625 -3 1.945312 -2.957031 2.09375 -2.875 C 2.25 -2.800781 2.363281 -2.691406 2.4375 -2.546875 C 2.519531 -2.410156 2.5625 -2.25 2.5625 -2.0625 C 2.5625 -1.875 2.519531 -1.707031 2.4375 -1.5625 C 2.363281 -1.425781 2.25 -1.316406 2.09375 -1.234375 C 1.945312 -1.160156 1.765625 -1.125 1.546875 -1.125 L 0.984375 -1.125 L 0.984375 0 L 0.390625 0 L 0.390625 -3 Z M 1.46875 -1.59375 C 1.800781 -1.59375 1.96875 -1.75 1.96875 -2.0625 C 1.96875 -2.375 1.800781 -2.53125 1.46875 -2.53125 L 0.984375 -2.53125 L 0.984375 -1.59375 Z M 1.46875 -1.59375 "/></g></g></g><g fill="#ffbd59" fill-opacity="1"><g transform="translate(87.816216, 28.363868)"><g><path d="M 0.6875 0 L 0.375 0 L 0.046875 -1.4375 L 0.328125 -1.4375 L 0.546875 -0.421875 L 0.5625 -0.421875 L 0.828125 -1.4375 L 1.0625 -1.4375 L 1.328125 -0.421875 L 1.359375 -0.421875 L 1.578125 -1.4375 L 1.84375 -1.4375 L 1.515625 0 L 1.203125 0 L 0.953125 -0.921875 L 0.921875 -0.921875 Z M 0.6875 0 "/></g></g><g transform="translate(89.695669, 28.363868)"><g><path d="M 0.46875 0 L 0.1875 0 L 0.1875 -1.4375 L 0.46875 -1.4375 Z M 0.46875 0 "/></g></g><g transform="translate(90.353576, 28.363868)"><g><path d="M 1.15625 -1.4375 L 1.15625 -1.203125 L 0.734375 -1.203125 L 0.734375 0 L 0.453125 0 L 0.453125 -1.203125 L 0.046875 -1.203125 L 0.046875 -1.4375 Z M 1.15625 -1.4375 "/></g></g><g transform="translate(91.5437, 28.363868)"><g><path d="M 1.109375 -0.890625 L 1.109375 -1.4375 L 1.40625 -1.4375 L 1.40625 0 L 1.109375 0 L 1.109375 -0.65625 L 0.46875 -0.65625 L 0.46875 0 L 0.1875 0 L 0.1875 -1.4375 L 0.46875 -1.4375 L 0.46875 -0.890625 Z M 1.109375 -0.890625 "/></g></g></g><path stroke-linecap="butt" transform="matrix(0.742136, 0, 0, 0.736983, 96.745055, 26.971501)" fill="none" stroke-linejoin="miter" d="M 0.00140006 0.998029 L 26.819037 0.998029 " stroke="#ffbd59" stroke-width="2" stroke-opacity="1" stroke-miterlimit="4"/><path stroke-linecap="butt" transform="matrix(0.742136, 0, 0, 0.736983, 64.435177, 26.971501)" fill="none" stroke-linejoin="miter" d="M -0.00213398 0.998029 L 26.820767 0.998029 " stroke="#ffbd59" stroke-width="2" stroke-opacity="1" stroke-miterlimit="4"/></svg>